<svg xmlns="http://www.w3.org/2000/svg" aria-label="Condensed Australian Made" role="img" height="14" viewBox="0 0 180 15" class="">
      <title>Condensed Australian Made</title>
      <desc>Condensed Australian Made Icon</desc>

      
          
          


  
      <g class="fill">
        <path d="M25.702 5.218h1.56l3.726 8.564h-2.13l-.737-1.814h-3.327l-.713 1.814H22l3.702-8.564zm.725 2.492l-1.04 2.661h2.093L26.427 7.71zm15.464 2.77c0 .508-.076.976-.23 1.403a3.088 3.088 0 0 1-.683 1.113 3.13 3.13 0 0 1-1.131.738c-.452.177-.972.266-1.56.266-.597 0-1.122-.089-1.573-.266a3.13 3.13 0 0 1-1.131-.738 3.088 3.088 0 0 1-.684-1.113 4.13 4.13 0 0 1-.23-1.403V5.218h1.887v5.19c0 .265.043.511.127.737.085.226.204.422.357.587.154.165.337.294.55.387.214.093.446.14.696.14.25 0 .48-.047.69-.14.21-.093.39-.222.544-.387.153-.165.272-.361.357-.587.085-.226.127-.472.127-.738v-5.19h1.887v5.263zm8.799-3.17a1.344 1.344 0 0 0-.623-.429 2.233 2.233 0 0 0-.744-.14 1.95 1.95 0 0 0-.424.05 1.623 1.623 0 0 0-.411.15.896.896 0 0 0-.315.273.689.689 0 0 0-.12.411c0 .258.096.456.29.593.193.137.437.254.732.35.294.097.61.194.95.29.338.098.654.235.949.412.294.178.538.415.732.714.193.298.29.697.29 1.197 0 .476-.089.892-.266 1.246-.178.355-.417.65-.72.883a3.063 3.063 0 0 1-1.052.52c-.4.114-.82.17-1.264.17a4.586 4.586 0 0 1-1.549-.254 3.88 3.88 0 0 1-1.33-.823l1.342-1.475c.194.258.438.457.732.598a2.09 2.09 0 0 0 1.38.158c.156-.037.298-.091.423-.164a.913.913 0 0 0 .302-.278.694.694 0 0 0 .115-.4.724.724 0 0 0-.297-.61 2.731 2.731 0 0 0-.743-.381c-.299-.105-.621-.21-.968-.315a4.346 4.346 0 0 1-.968-.423 2.332 2.332 0 0 1-.744-.702c-.197-.29-.296-.673-.296-1.149 0-.46.09-.863.272-1.21.181-.346.423-.637.726-.87.302-.234.65-.41 1.046-.527A4.283 4.283 0 0 1 49.36 5c.484 0 .951.069 1.403.206.452.137.859.367 1.222.69L50.69 7.31zm7.189-.423h-2.444v-1.67h6.775v1.67h-2.444v6.895H57.88V6.887zm8.109-1.67h3.314c.436 0 .85.043 1.24.128.391.084.734.226 1.029.423.294.198.528.464.701.799.174.334.26.752.26 1.252 0 .604-.157 1.118-.472 1.542-.314.423-.774.691-1.379.804l2.178 3.617h-2.262l-1.79-3.423h-.932v3.423h-1.887V5.218zm1.887 3.545h1.113c.17 0 .349-.006.538-.018.19-.012.361-.048.514-.109a.89.89 0 0 0 .381-.284c.101-.13.152-.31.152-.545 0-.217-.045-.39-.133-.52a.887.887 0 0 0-.34-.296 1.503 1.503 0 0 0-.471-.14 3.848 3.848 0 0 0-.52-.035h-1.234v1.947zm11.593-3.544h1.56l3.726 8.564h-2.129l-.738-1.814H78.56l-.713 1.814h-2.08l3.7-8.564zm.726 2.492l-1.04 2.661h2.092L80.194 7.71zm8.314-2.492h1.887v6.822h3.496v1.742h-5.383V5.218zm9.222 0h1.887v8.564H97.73V5.218zm9.246 0h1.56l3.726 8.564h-2.129l-.738-1.814h-3.326l-.714 1.814h-2.08l3.7-8.564zm.726 2.492l-1.04 2.661h2.092l-1.052-2.661zm8.242-2.492h2.564l3.641 5.951h.024V5.218h1.887v8.564h-2.467l-3.738-6.097h-.024v6.097h-1.887V5.218zm19.084 0h2.855l1.972 5.588h.024l1.984-5.588h2.843v8.564h-1.887V7.214h-.025l-2.25 6.568h-1.44l-2.164-6.568h-.025v6.568h-1.887V5.218zm17.06 0h1.561l3.726 8.564h-2.129l-.738-1.814h-3.327l-.713 1.814h-2.08l3.7-8.564zm.727 2.492l-1.04 2.661h2.092l-1.052-2.661zm8.241-2.492h2.831a8.08 8.08 0 0 1 1.954.23 4.47 4.47 0 0 1 1.615.744c.46.342.824.788 1.094 1.336.27.549.406 1.214.406 1.996 0 .694-.131 1.305-.394 1.833a3.94 3.94 0 0 1-1.058 1.33 4.68 4.68 0 0 1-1.536.817c-.58.186-1.19.278-1.827.278h-3.085V5.218zm1.888 6.822h.98c.435 0 .84-.044 1.215-.133.375-.088.7-.236.974-.441.274-.206.49-.476.647-.81.157-.335.236-.745.236-1.229 0-.419-.079-.784-.236-1.094a2.189 2.189 0 0 0-.635-.768 2.78 2.78 0 0 0-.938-.454 4.163 4.163 0 0 0-1.13-.151h-1.113v5.08zm10.19-6.822h5.818V6.96h-3.932v1.596h3.714v1.742h-3.714v1.742h4.15v1.742h-6.037V5.218zM11.672 0c1.112 1.749 2.275 3.47 3.316 5.26.539.924.489 1.993.033 2.969-.445.955-.917 1.908-1.488 2.792-1.085 1.683-2.321 1.71-3.636.199-.415-.478-.882-.95-1.417-1.28-1.76-1.084-3.008-.981-4.624.277-1.812 1.413-1.864 1.436-2.814-.608-.463-.996-.767-2.083-1-3.159-.196-.903.312-1.546 1.084-2.068.76-.513 1.405-1.19 2.13-1.756.447-.348.922-.688 1.437-.914.751-.33 1.625-.21 2.183-1.15.43-.725 1.736-.262 2.029.608.02.06.035.124.062.181.262.556.322 1.433 1.134 1.305.315-.05.525-.873.74-1.362.173-.392.283-.81.42-1.217L11.673 0zm-.23 13.07s.4.26.616.18c.218-.08.491-.53.651-.382.16.15.12 1.27-.468 1.518-.588.249-1.333-1.38-.8-1.316z"/>
      </g>
    


      
    </svg>