<svg xmlns="http://www.w3.org/2000/svg" aria-label="Condensed Natural" role="img" height="14" viewBox="0 0 220 16" class="">
      <title>Condensed Natural</title>
      <desc>Condensed Natural Icon</desc>

      
          
          


  
      <g class="fill">
        <path d="M113.61 6.62h1.91v8.69h-1.91zM119.72 6.62h2.6l3.7 6.04h.02V6.62h1.91v8.69h-2.5l-3.79-6.18h-.03v6.18h-1.91V6.62zM140.05 14.7a6.84 6.84 0 0 1-1.77.64 9 9 0 0 1-1.88.2 5.46 5.46 0 0 1-1.88-.32 4.4 4.4 0 0 1-1.52-.92 4.14 4.14 0 0 1-1-1.44 5 5 0 0 1-.35-1.89 4.93 4.93 0 0 1 .35-1.89 4 4 0 0 1 1-1.44 4.4 4.4 0 0 1 1.48-.92 5.46 5.46 0 0 1 1.88-.32 7.2 7.2 0 0 1 1.92.25 3.74 3.74 0 0 1 1.54.87L138.51 9a2.63 2.63 0 0 0-.88-.61 3.16 3.16 0 0 0-1.23-.21 2.82 2.82 0 0 0-1.11.21 2.52 2.52 0 0 0-.85.58 2.62 2.62 0 0 0-.55.89 3.18 3.18 0 0 0-.19 1.14 3.1 3.1 0 0 0 .19 1.12 2.48 2.48 0 0 0 .55.88 2.55 2.55 0 0 0 .85.59 2.82 2.82 0 0 0 1.11.21 3.78 3.78 0 0 0 1.08-.14 4.6 4.6 0 0 0 .73-.29v-1.44h-1.56v-1.77h3.4zM146.1 10.22h1.13a5.34 5.34 0 0 0 .55 0 1.72 1.72 0 0 0 .52-.11.9.9 0 0 0 .38-.29.82.82 0 0 0 .16-.55.92.92 0 0 0-.14-.53.89.89 0 0 0-.34-.3 1.69 1.69 0 0 0-.48-.14 4.91 4.91 0 0 0-.53 0h-1.25zm-1.91-3.6h3.36a6.4 6.4 0 0 1 1.26.13 3.13 3.13 0 0 1 1 .43 2.07 2.07 0 0 1 .71.81 2.71 2.71 0 0 1 .27 1.27 2.55 2.55 0 0 1-.48 1.57 2.14 2.14 0 0 1-1.4.81l2.21 3.67h-2.3l-1.81-3.47h-1v3.47h-1.91zM154.67 6.62h5.9v1.77h-3.99v1.62h3.77v1.77h-3.77v1.77h4.21v1.76h-6.12V6.62zM166.7 13.55h1a5.35 5.35 0 0 0 1.24-.14 2.64 2.64 0 0 0 1-.45 2.22 2.22 0 0 0 .65-.82 2.89 2.89 0 0 0 .24-1.24 2.39 2.39 0 0 0-.24-1.11 2.14 2.14 0 0 0-.64-.78 2.71 2.71 0 0 0-1-.46 4 4 0 0 0-1.15-.16h-1.1zm-1.92-6.93h2.88a8 8 0 0 1 2 .24 4.41 4.41 0 0 1 1.64.75A3.72 3.72 0 0 1 172.39 9a4.6 4.6 0 0 1 .41 2 4 4 0 0 1-.4 1.86 4 4 0 0 1-1.07 1.35 4.67 4.67 0 0 1-1.56.83 6 6 0 0 1-1.86.28h-3.13zM176.53 6.62h1.91v8.69h-1.91zM182.72 6.62h5.9v1.77h-3.99v1.62h3.77v1.77h-3.77v1.77h4.21v1.76h-6.12V6.62zM192.84 6.62h2.6l3.69 6.04h.03V6.62h1.91v8.69h-2.5l-3.79-6.18h-.03v6.18h-1.91V6.62zM206.98 8.32h-2.48v-1.7h6.87v1.7h-2.48v6.99h-1.91V8.32zM219.09 8.75a1.33 1.33 0 0 0-.63-.44 2.41 2.41 0 0 0-.76-.14 2.27 2.27 0 0 0-.43.05 1.56 1.56 0 0 0-.41.15.87.87 0 0 0-.32.28.7.7 0 0 0-.12.42.68.68 0 0 0 .29.6 2.83 2.83 0 0 0 .74.36l1 .29a4.11 4.11 0 0 1 1 .42 2.21 2.21 0 0 1 .74.72 2.18 2.18 0 0 1 .3 1.22 2.78 2.78 0 0 1-.27 1.26 2.68 2.68 0 0 1-.73.9 3.14 3.14 0 0 1-1.07.52 4.5 4.5 0 0 1-1.28.18 4.66 4.66 0 0 1-1.57-.26 3.84 3.84 0 0 1-1.36-.84l1.3-1.44a1.89 1.89 0 0 0 .74.6 2 2 0 0 0 .93.22 2 2 0 0 0 .47-.06 1.47 1.47 0 0 0 .43-.16 1 1 0 0 0 .31-.29.75.75 0 0 0 .11-.4.74.74 0 0 0-.3-.62 2.92 2.92 0 0 0-.75-.39l-1-.32a3.81 3.81 0 0 1-1-.43 2.31 2.31 0 0 1-.75-.71 2 2 0 0 1-.3-1.16 2.52 2.52 0 0 1 1-2.11 3.22 3.22 0 0 1 1.06-.54 4.33 4.33 0 0 1 1.24-.18 4.9 4.9 0 0 1 1.43.21 3.34 3.34 0 0 1 1.24.7zM31.07 6.62h2.62l3.71 6.06h.02V6.62h1.92v8.72h-2.51l-3.81-6.21H33v6.21h-1.93V6.62zM47.19 9.16l-1 2.71h2.13zm-.73-2.54h1.59l3.79 8.72h-2.17l-.75-1.85h-3.39l-.73 1.85h-2.11zM55.73 8.32h-2.49v-1.7h6.91v1.7h-2.49v7.02h-1.93V8.32zM70.94 12a4.42 4.42 0 0 1-.23 1.43 3.11 3.11 0 0 1-1.85 1.88 4.85 4.85 0 0 1-3.19 0 3.23 3.23 0 0 1-1.16-.75 3.19 3.19 0 0 1-.69-1.13 4.17 4.17 0 0 1-.24-1.43V6.62h1.93v5.28a2 2 0 0 0 .13.75 1.66 1.66 0 0 0 .36.6 1.57 1.57 0 0 0 .56.39 1.67 1.67 0 0 0 .71.15 1.63 1.63 0 0 0 .7-.15 1.67 1.67 0 0 0 .56-.39 2 2 0 0 0 .36-.6 2 2 0 0 0 .11-.75V6.62h1.92zM77.1 10.23h1.68a1.72 1.72 0 0 0 .53-.11 1 1 0 0 0 .39-.29.91.91 0 0 0 .15-.56.92.92 0 0 0-.14-.53.89.89 0 0 0-.34-.3 1.42 1.42 0 0 0-.48-.14 3.23 3.23 0 0 0-.53 0H77.1zm-1.92-3.61h3.38a6.41 6.41 0 0 1 1.26.12 2.92 2.92 0 0 1 1.05.44 2.15 2.15 0 0 1 .71.81 2.71 2.71 0 0 1 .27 1.27 2.54 2.54 0 0 1-.49 1.58 2.17 2.17 0 0 1-1.4.82l2.22 3.68h-2.31l-1.82-3.49h-1v3.49h-1.87zM89.24 9.16l-1.06 2.71h2.13zm-.74-2.54h1.59l3.8 8.72h-2.17L91 13.49h-3.42l-.73 1.85h-2.12zM97.3 6.62h1.92v6.95h3.56v1.77H97.3V6.62zM8.58 1a5 5 0 0 1 3.31 0 7.11 7.11 0 0 1 1.4.69c.11.06.85.19.5.36s-.5.24-.31.49.18.41 0 .85-.16.35.06 1 .91.16 1.07.41-.13.25-.51.31-1-.5-1.19-.78-.72-.28-1.23.31.57 1.33.7 1 .59-.53.53-.19.32.29.63.51.16.38.16.38c-.19.53-.73.22-.92 0s-.85.25-1.57.22S10 6 9.51 5.16a3.34 3.34 0 0 0-1.32-1.44c-.6-.38-.21-.62-.53-1s-.27.07-1 .37c-1 .42-.19-1.41 1.91-2.09m-3 4.89c0-.26.65-.48 1.43-.16s.4 1.25.59 1.48.21 0 1.37.51c.74.32.72 1.29.61 2a8.68 8.68 0 0 1 1.61 2.95h.18a11 11 0 0 1 3.9-5.2 2.32 2.32 0 0 0-.1-.4 1.08 1.08 0 0 0-.55-.68c-.25-.13.12-.75.69-.88s.22-.58.48-.85 1 .44 1.26 1.12a2.15 2.15 0 0 1 .12.5 11.87 11.87 0 0 1 1.14-.5 7.21 7.21 0 0 0-14.11 0 11.69 11.69 0 0 1 1.6.74 2.5 2.5 0 0 1-.22-.56"/><path class="a" d="M9.38 13.32s-5.88.95-7.65-5.82a9.39 9.39 0 0 0 7.65 5.82m3.72 0a9.39 9.39 0 0 0 7.65-5.82c-1.75 6.77-7.65 5.82-7.65 5.82m-1.62.35H11c-.95-2.81-4.75-7.94-11-7.94V6.8c0 .54.6 8.54 10.42 8.54h1.64c9.82 0 10.42-8 10.42-8.54V5.73c-6.24 0-10 5.13-11 7.94"/>
      </g>
    


      
    </svg>