<svg xmlns="http://www.w3.org/2000/svg" aria-label="Condensed Cruelty Free" role="img" height="14" viewBox="0 0 133 15" class="">
      <title>Condensed Cruelty Free</title>
      <desc>Condensed Cruelty Free Icon</desc>

      
          
          


  
      <g class="fill">
        <path d="M10.496 13.647s.084 1.213-.536 1.213H1.129s-.418-.501-.284-1.256c.023-1.232.937-2.31 2.309-2.909C2.03 8.291-1.606 0 1.708 0c3.225 0 3.4 7.646 3.368 10.217a6.815 6.815 0 0 1 1.18 0C6.224 7.647 6.4 0 9.624 0c3.314 0-.322 8.291-1.446 10.695 1.39.607 2.316 1.702 2.317 2.952zM23.012 8.424a1.836 1.836 0 0 0-.678-.516 2.256 2.256 0 0 0-.93-.18 2.34 2.34 0 0 0-1.758.774c-.22.244-.392.534-.516.87a3.13 3.13 0 0 0-.186 1.092c0 .4.062.766.186 1.098.124.332.294.62.51.864.216.244.47.434.762.57.292.136.606.204.942.204.384 0 .724-.08 1.02-.24.296-.16.54-.384.732-.672l1.56 1.164c-.36.504-.816.876-1.368 1.116-.552.24-1.12.36-1.704.36a5.234 5.234 0 0 1-1.836-.312 4.203 4.203 0 0 1-1.452-.894 4.053 4.053 0 0 1-.954-1.41c-.228-.552-.342-1.168-.342-1.848 0-.68.114-1.296.342-1.848a4.053 4.053 0 0 1 .954-1.41 4.203 4.203 0 0 1 1.452-.894A5.234 5.234 0 0 1 21.584 6c.24 0 .49.022.75.066.26.044.516.114.768.21.252.096.494.224.726.384.232.16.44.356.624.588l-1.44 1.176zm5.464-2.208h3.288c.432 0 .842.042 1.23.126.388.084.728.224 1.02.42.292.196.524.46.696.792.172.332.258.746.258 1.242 0 .6-.156 1.11-.468 1.53-.312.42-.768.686-1.368.798l2.16 3.588h-2.244l-1.776-3.396h-.924v3.396h-1.872V6.216zm1.872 3.516h1.104c.168 0 .346-.006.534-.018.188-.012.358-.048.51-.108a.882.882 0 0 0 .378-.282c.1-.128.15-.308.15-.54 0-.216-.044-.388-.132-.516a.88.88 0 0 0-.336-.294 1.49 1.49 0 0 0-.468-.138 3.817 3.817 0 0 0-.516-.036h-1.224v1.932zm15.868 1.704c0 .504-.076.968-.228 1.392a3.063 3.063 0 0 1-.678 1.104c-.3.312-.674.556-1.122.732-.448.176-.964.264-1.548.264-.592 0-1.112-.088-1.56-.264a3.106 3.106 0 0 1-1.122-.732c-.3-.312-.526-.68-.678-1.104a4.098 4.098 0 0 1-.228-1.392v-5.22h1.872v5.148c0 .264.042.508.126.732.084.224.202.418.354.582.152.164.334.292.546.384.212.092.442.138.69.138a1.623 1.623 0 0 0 1.224-.522c.152-.164.27-.358.354-.582.084-.224.126-.468.126-.732V6.216h1.872v5.22zm4.6-5.22h5.772v1.728h-3.9v1.584h3.684v1.728h-3.684v1.728h4.116v1.728h-5.988V6.216zm10.36 0h1.872v6.768h3.468v1.728h-5.34V6.216zm9.712 1.656h-2.424V6.216h6.72v1.656H72.76v6.84h-1.872v-6.84zm10.132 3.216l-3.192-4.872h2.328l1.8 3.18 1.908-3.18h2.22l-3.192 4.872v3.624H81.02v-3.624zm14.912-4.872h5.7v1.728h-3.828v1.728h3.54V11.4h-3.54v3.312h-1.872V6.216zm9.844 0h3.288c.432 0 .842.042 1.23.126.388.084.728.224 1.02.42.292.196.524.46.696.792.172.332.258.746.258 1.242 0 .6-.156 1.11-.468 1.53-.312.42-.768.686-1.368.798l2.16 3.588h-2.244l-1.776-3.396h-.924v3.396h-1.872V6.216zm1.872 3.516h1.104c.168 0 .346-.006.534-.018.188-.012.358-.048.51-.108a.882.882 0 0 0 .378-.282c.1-.128.15-.308.15-.54 0-.216-.044-.388-.132-.516a.88.88 0 0 0-.336-.294 1.49 1.49 0 0 0-.468-.138 3.817 3.817 0 0 0-.516-.036h-1.224v1.932zm8.776-3.516h5.772v1.728h-3.9v1.584h3.684v1.728h-3.684v1.728h4.116v1.728h-5.988V6.216zm10.36 0h5.772v1.728h-3.9v1.584h3.684v1.728h-3.684v1.728h4.116v1.728h-5.988V6.216z"/>
      </g>
    


      
    </svg>