<svg xmlns="http://www.w3.org/2000/svg" aria-label="Condensed Vegan" role="img" height="14" viewBox="0 0 102 10" class="">
      <title>Condensed Vegan</title>
      <desc>Condensed Vegan Icon</desc>

      
          
          


  
      <g class="fill">
        <path d="M4.53 9.2v-.26a9.8 9.8 0 0 1 2.4-6.89S4.76 3.58 4 8.12A5.06 5.06 0 0 0 2.49 5a6.32 6.32 0 0 1 1.3 4c0 .85-.34 1-.34 1a2.09 2.09 0 0 0 1.5.35c-.1-.13 0-.09-.1-.21a1.86 1.86 0 0 1-.32-.86M2.85 6.34A4.47 4.47 0 0 0 1.43 4a3.58 3.58 0 0 1 1.81 1.39s0-1.81-3.24-2a4.88 4.88 0 0 1 .33.93 2.21 2.21 0 0 0 2.52 2.02m2.58-3.41C7.2 1 8.48.87 8.48.87A7 7 0 0 0 6 4.48c3.46.32 3.89-2 4.22-3A8.09 8.09 0 0 1 10.8 0C5.56 0 5.43 2.93 5.43 2.93M10.26 4.8h1.38l1.35 3.6h.02l1.38-3.6h1.3l-2.27 5.5h-.97l-2.19-5.5zM18.25 4.8h3.73v1.12h-2.52v1.03h2.38v1.11h-2.38v1.12h2.66v1.12h-3.87V4.8zM30 9.91a4.54 4.54 0 0 1-1.12.4 5.86 5.86 0 0 1-1.19.12 3.25 3.25 0 0 1-1.18-.2 2.64 2.64 0 0 1-.94-.57 2.82 2.82 0 0 1-.57-.92 3 3 0 0 1-.22-1.19A3 3 0 0 1 25 6.36a2.71 2.71 0 0 1 .62-.92 2.81 2.81 0 0 1 .94-.58 3.48 3.48 0 0 1 1.18-.2 4.68 4.68 0 0 1 1.22.16 2.4 2.4 0 0 1 1 .55L29 6.3a1.77 1.77 0 0 0-.56-.39 2 2 0 0 0-.78-.13 1.78 1.78 0 0 0-.7.13 1.58 1.58 0 0 0-.54.37 1.68 1.68 0 0 0-.34.56 2.08 2.08 0 0 0-.12.71 2 2 0 0 0 .12.71 1.68 1.68 0 0 0 .34.56 1.58 1.58 0 0 0 .54.37 2 2 0 0 0 .7.13 2.31 2.31 0 0 0 .69-.09 3.16 3.16 0 0 0 .46-.18v-.9h-1V7H30zM34.81 4.8h1l2.39 5.5h-1.37l-.47-1.17h-2.13l-.46 1.17h-1.34zm.47 1.6l-.67 1.71H36zM40.69 4.8h1.64l2.34 3.82h.01V4.8h1.22v5.5h-1.59l-2.4-3.91h-.01v3.91h-1.21V4.8zM53.19 4.8h2a4.09 4.09 0 0 1 .8.08 1.75 1.75 0 0 1 .67.27 1.39 1.39 0 0 1 .45.51 1.77 1.77 0 0 1 .16.81 2 2 0 0 1-.15.81 1.3 1.3 0 0 1-.43.52 1.61 1.61 0 0 1-.64.27 3.48 3.48 0 0 1-.81.08h-.84v2.15h-1.21zm1.21 2.33h.8a1.66 1.66 0 0 0 .32 0 .81.81 0 0 0 .27-.13.46.46 0 0 0 .19-.2.61.61 0 0 0 .08-.32.54.54 0 0 0-.35-.53.9.9 0 0 0-.34-.09 2.11 2.11 0 0 0-.35 0h-.62zM60 4.8h2.13a4.17 4.17 0 0 1 .8.08 1.91 1.91 0 0 1 .65.28 1.25 1.25 0 0 1 .45.51 1.61 1.61 0 0 1 .17.8 1.62 1.62 0 0 1-.3 1A1.41 1.41 0 0 1 63 8l1.4 2.32H63L61.82 8.1h-.59v2.2H60zm1.22 2.28h1.05a.84.84 0 0 0 .34-.08.56.56 0 0 0 .25-.18.58.58 0 0 0 .14-.36.54.54 0 0 0-.08-.33.57.57 0 0 0-.22-.19 1.32 1.32 0 0 0-.3-.09 1.88 1.88 0 0 0-.33 0h-.79zM66.69 7.55a3 3 0 0 1 .22-1.19 2.56 2.56 0 0 1 .61-.92 2.73 2.73 0 0 1 .94-.57 3.27 3.27 0 0 1 1.19-.21 3.31 3.31 0 0 1 1.19.21 2.59 2.59 0 0 1 1.55 1.49 3 3 0 0 1 .22 1.19 3 3 0 0 1-.22 1.19 2.67 2.67 0 0 1-.62.92 2.59 2.59 0 0 1-.93.57 3.31 3.31 0 0 1-1.19.2 3.27 3.27 0 0 1-1.19-.2 2.73 2.73 0 0 1-.94-.57 2.64 2.64 0 0 1-.61-.92 3 3 0 0 1-.22-1.19m1.25 0a2 2 0 0 0 .12.71 1.71 1.71 0 0 0 .35.56 1.73 1.73 0 0 0 .54.37 1.95 1.95 0 0 0 1.4 0 1.73 1.73 0 0 0 .54-.37 1.53 1.53 0 0 0 .34-.56 1.8 1.8 0 0 0 .13-.71 1.87 1.87 0 0 0-.13-.71 1.53 1.53 0 0 0-.34-.56 1.58 1.58 0 0 0-.54-.37 1.95 1.95 0 0 0-1.4 0 1.58 1.58 0 0 0-.54.37 1.71 1.71 0 0 0-.35.56 2.08 2.08 0 0 0-.12.71M75.37 4.8h1.82a5 5 0 0 1 1.25.2 2.93 2.93 0 0 1 1 .48 2.34 2.34 0 0 1 .7.85 3 3 0 0 1 .26 1.28 2.48 2.48 0 0 1-.93 2 3 3 0 0 1-1 .53 3.77 3.77 0 0 1-1.17.18h-2zm1.21 4.38h.63a3.21 3.21 0 0 0 .79-.09 1.64 1.64 0 0 0 .63-.28 1.34 1.34 0 0 0 .37-.52 1.86 1.86 0 0 0 .15-.79 1.54 1.54 0 0 0-.15-.7 1.4 1.4 0 0 0-.41-.49A1.68 1.68 0 0 0 78 6a2.46 2.46 0 0 0-.72-.1h-.72zM87.83 8.18a2.66 2.66 0 0 1-.15.9 1.91 1.91 0 0 1-.43.71 2 2 0 0 1-.73.47 2.59 2.59 0 0 1-1 .17 2.64 2.64 0 0 1-1-.17 2 2 0 0 1-1.16-1.18 2.66 2.66 0 0 1-.15-.9V4.8h1.21v3.33a1.4 1.4 0 0 0 .08.47 1.21 1.21 0 0 0 .23.38 1.07 1.07 0 0 0 .35.25 1.13 1.13 0 0 0 .45.09 1 1 0 0 0 .47-.09 1 1 0 0 0 .31-.23 1 1 0 0 0 .23-.38 1.19 1.19 0 0 0 .08-.47V4.8h1.21zM94.48 6.23A1 1 0 0 0 94 5.9a1.4 1.4 0 0 0-.6-.12 1.45 1.45 0 0 0-.63.13 1.52 1.52 0 0 0-.5.37 1.68 1.68 0 0 0-.34.56 2.08 2.08 0 0 0-.12.71 2 2 0 0 0 .12.71 1.84 1.84 0 0 0 .33.56 1.47 1.47 0 0 0 1.1.5 1.29 1.29 0 0 0 .66-.16 1.41 1.41 0 0 0 .48-.43l1 .75a2 2 0 0 1-.88.72 2.65 2.65 0 0 1-1.1.23 3.27 3.27 0 0 1-1.19-.2 2.73 2.73 0 0 1-.94-.57 2.64 2.64 0 0 1-.61-.92 3 3 0 0 1-.22-1.19 3 3 0 0 1 .22-1.19 2.56 2.56 0 0 1 .61-.92 2.73 2.73 0 0 1 .94-.57 3.27 3.27 0 0 1 1.19-.21 2.8 2.8 0 0 1 .48 0 2.17 2.17 0 0 1 .5.13 2.37 2.37 0 0 1 .47.25 1.79 1.79 0 0 1 .4.38zM99.21 5.87h-1.57V4.8h4.34v1.07h-1.56v4.42h-1.21V5.87z"/>
      </g>
    


      
    </svg>