<svg xmlns="http://www.w3.org/2000/svg" aria-label="Condensed Carbon Neutral" role="img" height="14" viewBox="0 0 168 15" class="">
      <title>Condensed Carbon Neutral</title>
      <desc>Condensed Carbon Neutral Icon</desc>

      
          
          


  
      <g class="fill">
        <path class="st0" d="M10.9,6.6c-0.3,0.1-0.6,0.4-0.8,0.7C10,7.6,9.8,7.9,9.6,8.1C9.4,8.4,9.1,8.7,8.8,8.9c-0.4,0.3-1,0.7-1,0.7   C7.6,9.7,7.4,9.8,7.2,9.9c-0.4,0.2-0.9,0.3-1.4,0.3c-0.5,0.1-1,0-1.5-0.1C4.1,10,3.9,9.9,3.7,9.8C3.5,9.6,3.4,9.4,3.4,9.2   c0-0.3,0.1-0.6,0.3-0.9c0.2-0.2,0.4-0.5,0.7-0.7c0.1-0.2,0.2-0.3,0.3-0.5c0.1-0.3,0-0.5-0.2-0.8C4.4,6.3,4.3,6.2,4.2,6.1   c0,0.1,0,0.2-0.1,0.3C4,6.6,3.8,6.8,3.6,7C3.2,7.3,2.7,7.7,2.3,8.1C1.7,8.7,1.2,9.3,0.8,10c-0.1,0.2-0.2,0.5-0.2,0.7   c0,0.2,0,0.3-0.1,0.5c0,0.1,0,0.2,0,0.3l0,0c0,0,0,0.1,0,0.1c0,0.1,0,0.1,0,0.2c0,0,0,0,0,0.1c0,0,0,0.1,0,0.1l0,0.1l0,0l0,0   c0.1,0.5,0.4,1,0.7,1.5c0.4,0.5,1,1.2,1.1,1.3c0-0.1,0-0.1,0-0.2c0-0.3,0.1-0.6,0.2-1c0.1-0.3,0.3-0.6,0.5-0.9   C3.5,12.5,4,12.2,4.4,12c0.5-0.2,0.9-0.3,1.4-0.5c0.4-0.1,0.8-0.3,1.2-0.4c0.4-0.1,0.9-0.4,1.3-0.6c0.5-0.3,1-0.8,1.4-1.3   c0.4-0.4,0.7-0.9,0.9-1.4c0.2-0.3,0.4-0.6,0.6-1c0-0.1,0.1-0.1,0.2-0.2C11.3,6.5,11.1,6.5,10.9,6.6"/>
        <path class="st0" d="M4.7,9.6c0.3,0.2,0.7,0.2,1,0.2c0.5,0,1,0,1.5-0.1c0.1,0,0.3-0.1,0.4-0.1c0.4-0.2,0.7-0.4,1-0.7   C8.8,8.5,9,8,9.2,7.6c0.1-0.2,0.3-0.5,0.4-0.7c0.1-0.1,0.2-0.3,0.3-0.4c0,0,0,0-0.1-0.1c-0.2-0.1-0.4-0.1-0.6,0   C9.2,6.4,9.1,6.4,9,6.5c-0.3,0.3-0.4,0.7-0.6,1C8.3,7.8,8.2,8,8,8.2C7.8,8.7,7.4,9,7,9.2c0,0-0.1,0-0.1,0.1c0,0,0,0,0,0   c0,0,0,0,0.1-0.1C7.2,9,7.5,8.7,7.7,8.3C7.9,8,8,7.6,8.2,7.2C8.4,7,8.5,6.7,8.7,6.5c0.1-0.1,0.1-0.1,0-0.1c-0.1-0.1-0.3-0.1-0.5,0   C8.1,6.3,8,6.4,8,6.5C7.7,6.8,7.6,7,7.4,7.4C7.3,7.6,7.1,7.9,7,8.1C6.7,8.6,6.3,9,5.9,9.2c0,0-0.1,0-0.1,0.1l0,0c0,0,0.1,0,0.1-0.1   C6,9.1,6.1,9,6.2,8.9c0.3-0.3,0.5-0.7,0.7-1.1C7.1,7.4,7.3,7,7.6,6.7c-0.1,0-0.1-0.1-0.2-0.1c-0.2,0-0.4,0-0.5,0.1   C6.8,6.9,6.7,7,6.6,7.1C6.4,7.4,6.2,7.8,6,8.1C5.8,8.4,5.6,8.8,5.3,9C5.1,9.2,4.9,9.4,4.7,9.6C4.6,9.6,4.6,9.6,4.7,9.6 M9.6,2.3   C9.3,2.3,9.1,2.4,8.8,2.4c-0.2,0-0.3,0-0.5,0c-0.1,0-0.3,0-0.4,0c-0.4,0-0.7,0-1,0.1c-0.4,0.1-0.8,0.4-1,0.8   C5.6,3.5,5.5,3.8,5.3,4.1C5.2,4.3,5.1,4.6,5.1,4.9C5,5,5,5.1,5,5.2c0,0.1,0,0.2,0,0.3l2.8-1.9l0,0L5.3,5.9l0,0c0.1,0,0.2,0,0.4,0   c0.3,0,0.6,0,1-0.1c0.2-0.1,0.5-0.1,0.7-0.2c0.4-0.2,0.8-0.4,1.1-0.7l0,0l0.1-0.1l0,0l0,0c0.6-0.5,0.7-1,0.7-1   C9.5,3.3,9.6,2.8,9.6,2.3 M1.9,2.2l2.7,3c0-0.1,0-0.3-0.1-0.4c0-0.2-0.1-0.5-0.1-0.7C4.3,3.8,4.2,3.5,4.1,3.3   c0-0.1-0.1-0.2-0.1-0.2l0,0l0,0C4,2.9,3.9,2.7,3.8,2.6c-0.6-1-1.2-1.2-1.2-1.2c-0.1,0-0.2-0.1-0.2-0.1C2.2,1.3,2.1,1.2,2,1.2   C1.8,1.1,1.5,1,1.3,0.9C1,0.8,0.7,0.6,0.5,0.4C0.4,0.3,0.3,0.2,0.2,0c0,0.1,0,0.3,0,0.4c0,0.5,0,1,0.1,1.4c0.1,0.2,0.1,0.4,0.2,0.6   c0.1,0.3,0.3,0.6,0.4,0.9c0.2,0.4,0.5,0.8,0.8,1.1C1.9,4.7,2.1,4.9,2.3,5c0.2,0.2,0.5,0.3,0.8,0.4c0.1,0,0.3,0.1,0.4,0.1   c0.1,0,0.3,0,0.5,0L1.9,2.2L1.9,2.2"/>
        <path class="st0" d="M24.4,8.4C24.2,8.2,24,8,23.7,7.9c-0.3-0.1-0.6-0.2-0.9-0.2s-0.7,0.1-1,0.2c-0.3,0.1-0.6,0.3-0.8,0.6   c-0.2,0.2-0.4,0.5-0.5,0.9c-0.1,0.3-0.2,0.7-0.2,1.1c0,0.4,0.1,0.8,0.2,1.1c0.1,0.3,0.3,0.6,0.5,0.9c0.2,0.2,0.5,0.4,0.8,0.6   c0.3,0.1,0.6,0.2,1,0.2c0.4,0,0.7-0.1,1-0.2s0.5-0.4,0.7-0.7l1.6,1.2c-0.4,0.5-0.8,0.9-1.4,1.1c-0.6,0.2-1.1,0.4-1.7,0.4   c-0.7,0-1.3-0.1-1.9-0.3c-0.6-0.2-1.1-0.5-1.5-0.9c-0.4-0.4-0.7-0.9-1-1.4c-0.2-0.6-0.3-1.2-0.3-1.9c0-0.7,0.1-1.3,0.3-1.9   c0.2-0.6,0.6-1,1-1.4c0.4-0.4,0.9-0.7,1.5-0.9C21.7,6.1,22.3,6,22.9,6c0.2,0,0.5,0,0.8,0.1c0.3,0,0.5,0.1,0.8,0.2   c0.3,0.1,0.5,0.2,0.7,0.4c0.2,0.2,0.4,0.4,0.6,0.6L24.4,8.4z"/>
        <path class="st0" d="M32.3,6.2h1.6l3.7,8.6h-2.1L34.7,13h-3.3l-0.7,1.8h-2.1L32.3,6.2z M33,8.7l-1,2.7h2.1L33,8.7z"/>
        <path class="st0" d="M40.9,6.2h3.3c0.4,0,0.9,0,1.2,0.1c0.4,0.1,0.7,0.2,1,0.4C46.8,7,47,7.2,47.2,7.6c0.2,0.3,0.3,0.8,0.3,1.3   c0,0.6-0.2,1.1-0.5,1.5s-0.8,0.7-1.4,0.8l2.2,3.6h-2.3l-1.8-3.4h-0.9v3.4h-1.9V6.2z M42.8,9.8h1.1c0.2,0,0.4,0,0.5,0   c0.2,0,0.4,0,0.5-0.1s0.3-0.2,0.4-0.3c0.1-0.1,0.2-0.3,0.2-0.5c0-0.2,0-0.4-0.1-0.5C45.3,8.1,45.1,8.1,45,8   c-0.1-0.1-0.3-0.1-0.5-0.1c-0.2,0-0.4,0-0.5,0h-1.2V9.8z"/>
        <path class="st0" d="M51.2,6.2h3.2c0.4,0,0.7,0,1.1,0.1c0.4,0.1,0.7,0.2,1,0.3C56.8,6.8,57,7,57.2,7.3c0.2,0.3,0.3,0.7,0.3,1.1   c0,0.5-0.1,0.9-0.4,1.2c-0.3,0.3-0.6,0.5-1.1,0.7v0c0.3,0,0.5,0.1,0.8,0.2c0.2,0.1,0.4,0.3,0.6,0.4c0.2,0.2,0.3,0.4,0.4,0.6   c0.1,0.2,0.1,0.5,0.1,0.8c0,0.5-0.1,0.8-0.3,1.1s-0.4,0.5-0.8,0.7c-0.3,0.2-0.7,0.3-1,0.4c-0.4,0.1-0.8,0.1-1.1,0.1h-3.5V6.2z    M53.1,9.6h1.4c0.1,0,0.3,0,0.4,0c0.1,0,0.3-0.1,0.4-0.2c0.1-0.1,0.2-0.2,0.3-0.3c0.1-0.1,0.1-0.3,0.1-0.4c0-0.2,0-0.3-0.1-0.4   c-0.1-0.1-0.2-0.2-0.3-0.3c-0.1-0.1-0.3-0.1-0.4-0.1s-0.3,0-0.4,0h-1.3V9.6z M53.1,13.2h1.7c0.1,0,0.3,0,0.4,0   c0.1,0,0.3-0.1,0.4-0.2c0.1-0.1,0.2-0.2,0.3-0.3c0.1-0.1,0.1-0.3,0.1-0.5c0-0.2-0.1-0.4-0.2-0.5c-0.1-0.1-0.2-0.2-0.4-0.3   c-0.2-0.1-0.3-0.1-0.5-0.1c-0.2,0-0.3,0-0.5,0h-1.4V13.2z"/>
        <path class="st0" d="M61,10.5c0-0.7,0.1-1.3,0.3-1.9c0.2-0.6,0.6-1,1-1.4c0.4-0.4,0.9-0.7,1.5-0.9C64.3,6.1,64.9,6,65.6,6   c0.7,0,1.3,0.1,1.9,0.3c0.6,0.2,1.1,0.5,1.5,0.9c0.4,0.4,0.7,0.9,1,1.4c0.2,0.6,0.3,1.2,0.3,1.9c0,0.7-0.1,1.3-0.3,1.9   c-0.2,0.6-0.6,1-1,1.4c-0.4,0.4-0.9,0.7-1.5,0.9c-0.6,0.2-1.2,0.3-1.9,0.3c-0.7,0-1.3-0.1-1.9-0.3c-0.6-0.2-1.1-0.5-1.5-0.9   c-0.4-0.4-0.7-0.9-1-1.4C61.1,11.8,61,11.2,61,10.5z M62.9,10.5c0,0.4,0.1,0.8,0.2,1.1c0.1,0.3,0.3,0.6,0.5,0.9   c0.2,0.2,0.5,0.4,0.8,0.6c0.3,0.1,0.7,0.2,1.1,0.2s0.8-0.1,1.1-0.2c0.3-0.1,0.6-0.3,0.8-0.6c0.2-0.2,0.4-0.5,0.5-0.9   c0.1-0.3,0.2-0.7,0.2-1.1c0-0.4-0.1-0.8-0.2-1.1c-0.1-0.3-0.3-0.6-0.5-0.9c-0.2-0.2-0.5-0.4-0.8-0.6c-0.3-0.1-0.7-0.2-1.1-0.2   s-0.8,0.1-1.1,0.2c-0.3,0.1-0.6,0.3-0.8,0.6c-0.2,0.2-0.4,0.5-0.5,0.9C63,9.7,62.9,10.1,62.9,10.5z"/>
        <path class="st0" d="M73.9,6.2h2.6l3.6,6h0v-6h1.9v8.6h-2.5l-3.7-6.1h0v6.1h-1.9V6.2z"/>
        <path class="st0" d="M94.3,10.5c0-0.7,0.1-1.3,0.3-1.9c0.2-0.6,0.6-1,1-1.4c0.4-0.4,0.9-0.7,1.5-0.9C97.7,6.1,98.3,6,99,6  c0.7,0,1.3,0.1,1.9,0.3s1.1,0.5,1.5,0.9c0.4,0.4,0.7,0.9,1,1.4c0.2,0.6,0.3,1.2,0.3,1.9c0,0.7-0.1,1.3-0.3,1.9c-0.2,0.6-0.6,1-1,1.4  c-0.4,0.4-0.9,0.7-1.5,0.9c-0.6,0.2-1.2,0.3-1.9,0.3c-0.7,0-1.3-0.1-1.9-0.3c-0.6-0.2-1.1-0.5-1.5-0.9c-0.4-0.4-0.7-0.9-1-1.4  C94.4,11.8,94.3,11.2,94.3,10.5z M96.3,10.5c0,0.4,0.1,0.8,0.2,1.1c0.1,0.3,0.3,0.6,0.5,0.9c0.2,0.2,0.5,0.4,0.8,0.6  c0.3,0.1,0.7,0.2,1.1,0.2s0.8-0.1,1.1-0.2c0.3-0.1,0.6-0.3,0.8-0.6c0.2-0.2,0.4-0.5,0.5-0.9c0.1-0.3,0.2-0.7,0.2-1.1  c0-0.4-0.1-0.8-0.2-1.1c-0.1-0.3-0.3-0.6-0.5-0.9c-0.2-0.2-0.5-0.4-0.8-0.6c-0.3-0.1-0.7-0.2-1.1-0.2S98.2,7.8,97.9,8  c-0.3,0.1-0.6,0.3-0.8,0.6c-0.2,0.2-0.4,0.5-0.5,0.9C96.4,9.7,96.3,10.1,96.3,10.5z"/>
        <path class="st0" d="M107.4,6.2h5.8V8h-3.9v1.7h3.6v1.7h-3.6v3.3h-1.9V6.2z"/>
        <path class="st0" d="M117,6.2h5.8V8h-3.9v1.7h3.6v1.7h-3.6v3.3H117V6.2z"/>
        <path class="st0" d="M130.7,8.3c-0.2-0.2-0.4-0.3-0.6-0.4c-0.3-0.1-0.5-0.1-0.7-0.1c-0.1,0-0.3,0-0.4,0c-0.1,0-0.3,0.1-0.4,0.2  c-0.1,0.1-0.2,0.2-0.3,0.3c-0.1,0.1-0.1,0.2-0.1,0.4c0,0.3,0.1,0.5,0.3,0.6c0.2,0.1,0.4,0.3,0.7,0.4c0.3,0.1,0.6,0.2,1,0.3  c0.3,0.1,0.7,0.2,1,0.4c0.3,0.2,0.5,0.4,0.7,0.7s0.3,0.7,0.3,1.2c0,0.5-0.1,0.9-0.3,1.2c-0.2,0.4-0.4,0.7-0.7,0.9  c-0.3,0.2-0.7,0.4-1.1,0.5c-0.4,0.1-0.8,0.2-1.3,0.2c-0.6,0-1.1-0.1-1.5-0.3c-0.5-0.2-0.9-0.4-1.3-0.8l1.3-1.5  c0.2,0.3,0.4,0.5,0.7,0.6c0.3,0.1,0.6,0.2,0.9,0.2c0.2,0,0.3,0,0.5-0.1c0.2,0,0.3-0.1,0.4-0.2c0.1-0.1,0.2-0.2,0.3-0.3  s0.1-0.2,0.1-0.4c0-0.3-0.1-0.5-0.3-0.6c-0.2-0.1-0.4-0.3-0.7-0.4c-0.3-0.1-0.6-0.2-1-0.3c-0.3-0.1-0.7-0.2-1-0.4  c-0.3-0.2-0.5-0.4-0.7-0.7c-0.2-0.3-0.3-0.7-0.3-1.2c0-0.5,0.1-0.9,0.3-1.2c0.2-0.3,0.4-0.6,0.7-0.9c0.3-0.2,0.7-0.4,1-0.5  c0.4-0.1,0.8-0.2,1.2-0.2c0.5,0,1,0.1,1.4,0.2c0.5,0.1,0.9,0.4,1.2,0.7L130.7,8.3z"/>
        <path class="st0" d="M136,6.2h5.8V8h-3.9v1.6h3.7v1.7h-3.7v1.7h4.2v1.7h-6V6.2z"/>
        <path class="st0" d="M147.6,7.9h-2.4V6.2h6.8v1.7h-2.4v6.9h-1.9V7.9z"/>
      </g>
    


      
    </svg>