<svg xmlns="http://www.w3.org/2000/svg" aria-label="Condensed No Parabens" role="img" height="14" viewBox="0 0 126 15" class="">
      <title>Condensed No Parabens</title>
      <desc>Condensed No Parabens Icon</desc>

      
          
          


  
      <g>
        <path d="M9.499 8.193V.815h3.725v13.37H8.88l-4.654-7.59v7.59H.5V.815h4.485l4.514 7.378zm8.655-.693c0-1.054.178-2.015.536-2.882a6.401 6.401 0 0 1 1.506-2.224A6.619 6.619 0 0 1 22.481.986C23.354.66 24.304.5 25.328.5c1.025 0 1.975.161 2.848.486.878.326 1.64.795 2.285 1.408a6.401 6.401 0 0 1 1.506 2.224c.358.867.536 1.828.536 2.882s-.178 2.015-.536 2.882a6.401 6.401 0 0 1-1.506 2.224 6.619 6.619 0 0 1-2.285 1.408c-.873.325-1.823.486-2.848.486-1.024 0-1.974-.161-2.847-.486a6.619 6.619 0 0 1-2.285-1.408 6.401 6.401 0 0 1-1.506-2.224c-.358-.867-.536-1.828-.536-2.882zm3.83 0c0 .524.08.998.24 1.424a3.05 3.05 0 0 0 1.717 1.802c.408.171.87.258 1.387.258.518 0 .98-.087 1.388-.258a3.05 3.05 0 0 0 1.717-1.802c.16-.426.24-.9.24-1.424 0-.513-.08-.984-.24-1.417a3.146 3.146 0 0 0-.671-1.095 3.05 3.05 0 0 0-1.046-.714 3.552 3.552 0 0 0-1.388-.258c-.518 0-.98.087-1.387.258a3.05 3.05 0 0 0-1.046.714c-.29.305-.513.669-.67 1.095a4.06 4.06 0 0 0-.24 1.417z" class="stroke"/>
        <path d="M42 6.218h3.181c.444 0 .863.04 1.259.12.395.081.74.22 1.034.418.294.198.528.464.701.798.174.335.26.756.26 1.265 0 .5-.08.919-.241 1.258a2.064 2.064 0 0 1-.666.81 2.697 2.697 0 0 1-1.004.43 5.885 5.885 0 0 1-1.258.127h-1.379v3.338H42V6.218zm1.887 3.629h1.258c.17 0 .333-.016.49-.049.157-.032.298-.086.423-.163a.871.871 0 0 0 .303-.314.994.994 0 0 0 .115-.502c0-.218-.05-.394-.151-.527-.101-.133-.23-.236-.388-.308a1.657 1.657 0 0 0-.526-.14 5.376 5.376 0 0 0-.556-.03h-.968v2.033zm10.48-3.63h1.56l3.726 8.565h-2.129l-.738-1.814H53.46l-.714 1.814h-2.08l3.7-8.564zm.726 2.493l-1.04 2.661h2.092L55.093 8.71zm8.242-2.492h3.314c.436 0 .849.042 1.24.127.391.084.734.226 1.028.423.295.198.529.464.702.799.173.334.26.752.26 1.252 0 .604-.157 1.118-.472 1.542-.314.423-.774.691-1.379.804l2.178 3.617h-2.262l-1.79-3.423h-.932v3.423h-1.887V6.218zm1.887 3.544h1.113c.169 0 .348-.006.538-.018.19-.012.36-.048.514-.109a.89.89 0 0 0 .381-.284c.101-.13.151-.31.151-.545 0-.217-.044-.39-.133-.52a.887.887 0 0 0-.338-.296 1.503 1.503 0 0 0-.472-.14 3.848 3.848 0 0 0-.52-.035h-1.234v1.947zm11.593-3.544h1.56l3.726 8.564h-2.13l-.737-1.814h-3.327l-.713 1.814h-2.081l3.702-8.564zm.725 2.492L76.5 11.37h2.093L77.54 8.71zm8.242-2.492h3.194c.37 0 .744.026 1.119.078.375.053.711.158 1.01.315.298.157.54.377.726.66.185.281.278.656.278 1.124 0 .484-.135.885-.405 1.204-.27.318-.627.546-1.07.683v.024c.281.04.537.12.767.236.23.117.428.266.593.448.165.181.292.393.381.635.089.242.133.5.133.774 0 .452-.097.829-.29 1.131a2.282 2.282 0 0 1-.75.732 3.29 3.29 0 0 1-1.035.4c-.383.08-.764.12-1.143.12h-3.508V6.218zM87.67 9.64h1.367c.145 0 .289-.016.43-.048.14-.033.268-.085.38-.158a.819.819 0 0 0 .376-.725.79.79 0 0 0-.115-.442.8.8 0 0 0-.297-.272 1.412 1.412 0 0 0-.41-.14 2.469 2.469 0 0 0-.448-.041h-1.283V9.64zm0 3.544h1.694c.145 0 .292-.016.441-.048.15-.032.285-.089.406-.17a.963.963 0 0 0 .296-.314.909.909 0 0 0 .115-.472.756.756 0 0 0-.151-.49.959.959 0 0 0-.381-.284 1.952 1.952 0 0 0-.496-.133 3.685 3.685 0 0 0-.496-.036h-1.428v1.947zm8.847-6.967h5.819V7.96h-3.932v1.596h3.714v1.742h-3.714v1.742h4.15v1.742h-6.037V6.218zm10.371 0h2.565l3.64 5.951h.025V6.218h1.887v8.564h-2.468l-3.738-6.097h-.024v6.097h-1.887V6.218zm16.915 2.092a1.344 1.344 0 0 0-.623-.429 2.233 2.233 0 0 0-.744-.14 1.95 1.95 0 0 0-.423.05 1.623 1.623 0 0 0-.411.15.896.896 0 0 0-.315.273.689.689 0 0 0-.12.411c0 .258.096.456.29.593.193.137.437.254.731.35.295.097.611.194.95.29.339.098.655.235.95.412.294.178.538.415.732.714.193.298.29.697.29 1.197 0 .476-.089.892-.266 1.246-.178.355-.418.65-.72.883a3.063 3.063 0 0 1-1.052.52c-.4.114-.821.17-1.265.17a4.586 4.586 0 0 1-1.548-.254 3.88 3.88 0 0 1-1.33-.823l1.342-1.475c.194.258.438.457.732.598a2.09 2.09 0 0 0 1.379.158c.157-.037.298-.091.423-.164a.913.913 0 0 0 .303-.278.694.694 0 0 0 .115-.4.724.724 0 0 0-.297-.61 2.731 2.731 0 0 0-.744-.381c-.298-.105-.62-.21-.967-.315a4.346 4.346 0 0 1-.968-.423 2.332 2.332 0 0 1-.744-.702c-.198-.29-.296-.673-.296-1.149 0-.46.09-.863.272-1.21.181-.346.423-.637.726-.87.302-.234.65-.41 1.046-.527A4.283 4.283 0 0 1 122.472 6c.484 0 .951.069 1.403.206.452.137.859.367 1.222.69l-1.295 1.414z" class="fill"/>
      </g>
    


      
    </svg>