<svg xmlns="http://www.w3.org/2000/svg" aria-label="Condensed No Sulphates" role="img" height="14" viewBox="0 0 133 15" class="">
      <title>Condensed No Sulphates</title>
      <desc>Condensed No Sulphates Icon</desc>

      
          
          


  
      <g>
        <path d="M9.499 8.193V.815h3.725v13.37H8.88l-4.654-7.59v7.59H.5V.815h4.485l4.514 7.378zm8.655-.693c0-1.054.178-2.015.536-2.882a6.401 6.401 0 0 1 1.506-2.224A6.619 6.619 0 0 1 22.481.986C23.354.66 24.304.5 25.328.5c1.025 0 1.975.161 2.848.486.878.326 1.64.795 2.285 1.408a6.401 6.401 0 0 1 1.506 2.224c.358.867.536 1.828.536 2.882s-.178 2.015-.536 2.882a6.401 6.401 0 0 1-1.506 2.224 6.619 6.619 0 0 1-2.285 1.408c-.873.325-1.823.486-2.848.486-1.024 0-1.974-.161-2.847-.486a6.619 6.619 0 0 1-2.285-1.408 6.401 6.401 0 0 1-1.506-2.224c-.358-.867-.536-1.828-.536-2.882zm3.83 0c0 .524.08.998.24 1.424a3.05 3.05 0 0 0 1.717 1.802c.408.171.87.258 1.387.258.518 0 .98-.087 1.388-.258a3.05 3.05 0 0 0 1.717-1.802c.16-.426.24-.9.24-1.424 0-.513-.08-.984-.24-1.417a3.146 3.146 0 0 0-.671-1.095 3.05 3.05 0 0 0-1.046-.714 3.552 3.552 0 0 0-1.388-.258c-.518 0-.98.087-1.387.258a3.05 3.05 0 0 0-1.046.714c-.29.305-.513.669-.67 1.095a4.06 4.06 0 0 0-.24 1.417z" class="stroke"/>
        <path d="M46.875 8.31a1.344 1.344 0 0 0-.623-.429 2.233 2.233 0 0 0-.744-.14 1.95 1.95 0 0 0-.423.05 1.623 1.623 0 0 0-.412.15.896.896 0 0 0-.314.273.689.689 0 0 0-.121.411c0 .258.097.456.29.593.194.137.438.254.732.35.294.097.611.194.95.29.338.098.655.235.95.412.294.178.538.415.731.714.194.298.29.697.29 1.197 0 .476-.088.892-.266 1.246-.177.355-.417.65-.72.883a3.063 3.063 0 0 1-1.052.52c-.4.114-.82.17-1.264.17a4.586 4.586 0 0 1-1.548-.254A3.88 3.88 0 0 1 42 13.923l1.343-1.475c.193.258.437.457.732.598a2.09 2.09 0 0 0 1.379.158c.157-.037.298-.091.423-.164a.913.913 0 0 0 .302-.278.694.694 0 0 0 .115-.4.724.724 0 0 0-.296-.61 2.731 2.731 0 0 0-.744-.381c-.298-.105-.62-.21-.968-.315a4.346 4.346 0 0 1-.967-.423 2.332 2.332 0 0 1-.744-.702c-.198-.29-.297-.673-.297-1.149 0-.46.091-.863.272-1.21.182-.346.424-.637.726-.87.303-.234.651-.41 1.047-.527A4.283 4.283 0 0 1 45.544 6c.484 0 .952.069 1.404.206.451.137.858.367 1.221.69L46.875 8.31zm12.754 3.17c0 .508-.077.976-.23 1.403a3.088 3.088 0 0 1-.683 1.113 3.13 3.13 0 0 1-1.131.738c-.452.177-.972.266-1.56.266-.598 0-1.122-.089-1.573-.266a3.13 3.13 0 0 1-1.131-.738 3.088 3.088 0 0 1-.684-1.113 4.13 4.13 0 0 1-.23-1.403V6.218h1.887v5.19c0 .265.043.511.127.737.085.226.204.422.357.587.153.165.337.294.55.387.214.093.446.14.696.14.25 0 .48-.047.69-.14.21-.093.39-.222.544-.387.153-.165.272-.361.357-.587.085-.226.127-.472.127-.738v-5.19h1.887v5.263zm4.637-5.262h1.887v6.822h3.496v1.742h-5.383V6.218zm9.246 0h3.182c.443 0 .862.04 1.258.12.395.081.74.22 1.034.418.294.198.528.464.701.798.174.335.26.756.26 1.265 0 .5-.08.919-.241 1.258a2.064 2.064 0 0 1-.666.81 2.697 2.697 0 0 1-1.004.43 5.885 5.885 0 0 1-1.258.127H75.4v3.338h-1.887V6.218zM75.4 9.847h1.258c.17 0 .333-.016.49-.049.157-.032.299-.086.424-.163a.871.871 0 0 0 .302-.314.994.994 0 0 0 .115-.502c0-.218-.05-.394-.151-.527-.101-.133-.23-.236-.387-.308a1.657 1.657 0 0 0-.527-.14 5.376 5.376 0 0 0-.556-.03h-.968v2.033zm8.557-3.63h1.887v3.194h3.665V6.218h1.887v8.564h-1.887v-3.701h-3.665v3.701h-1.887V6.218zm14.822 0h1.56l3.727 8.565h-2.13l-.737-1.814H97.87l-.714 1.814h-2.08l3.701-8.564zm.726 2.493l-1.04 2.661h2.092L99.504 8.71zm8.786-.823h-2.443v-1.67h6.774v1.67h-2.444v6.895h-1.887V7.887zm8.182-1.67h5.818V7.96h-3.931v1.596h3.714v1.742h-3.714v1.742h4.15v1.742h-6.037V6.218zm14.605 2.093a1.344 1.344 0 0 0-.623-.429 2.233 2.233 0 0 0-.744-.14 1.95 1.95 0 0 0-.424.05 1.623 1.623 0 0 0-.411.15.896.896 0 0 0-.315.273.689.689 0 0 0-.12.411c0 .258.096.456.29.593.193.137.437.254.732.35.294.097.61.194.95.29.338.098.655.235.949.412.294.178.538.415.732.714.193.298.29.697.29 1.197 0 .476-.089.892-.266 1.246-.177.355-.417.65-.72.883a3.063 3.063 0 0 1-1.052.52c-.4.114-.82.17-1.264.17a4.586 4.586 0 0 1-1.549-.254 3.88 3.88 0 0 1-1.33-.823l1.342-1.475c.194.258.438.457.732.598a2.09 2.09 0 0 0 1.38.158c.156-.037.298-.091.423-.164a.913.913 0 0 0 .302-.278.694.694 0 0 0 .115-.4.724.724 0 0 0-.296-.61 2.731 2.731 0 0 0-.744-.381c-.299-.105-.621-.21-.968-.315a4.346 4.346 0 0 1-.968-.423 2.332 2.332 0 0 1-.744-.702c-.197-.29-.296-.673-.296-1.149 0-.46.09-.863.272-1.21.181-.346.423-.637.726-.87.302-.234.651-.41 1.046-.527A4.283 4.283 0 0 1 129.746 6c.484 0 .952.069 1.403.206.452.137.86.367 1.222.69l-1.294 1.414z" class="fill"/>
      </g>

    
    


      
    </svg>