<svg xmlns="http://www.w3.org/2000/svg" role="img" height="75" viewBox="0 0 76 70" class="">
      <title/>
      <desc> Icon</desc>

      
          
          


  
      <path d="M2.698 52.442L0 58.683h1.516l.52-1.322H4.46l.537 1.322H6.55l-2.714-6.24H2.698zm.528 1.815l.767 1.94H2.468l.758-1.94zm11.416 2.02c0 .371-.057.711-.168 1.022a2.24 2.24 0 0 1-.498.811c-.22.23-.495.41-.824.538a3.1 3.1 0 0 1-1.137.193c-.435 0-.817-.064-1.146-.193a2.256 2.256 0 0 1-.824-.538 2.254 2.254 0 0 1-.498-.81 2.994 2.994 0 0 1-.168-1.023v-3.835h1.375v3.781c0 .195.03.374.093.538.062.165.149.308.26.428.112.121.245.215.4.283.157.067.326.101.508.101s.35-.034.502-.1c.153-.069.286-.163.397-.284.11-.12.199-.263.26-.428.062-.164.093-.343.093-.538v-3.78h1.375v3.834zm6.557-2.31a.977.977 0 0 0-.454-.313 1.62 1.62 0 0 0-.542-.102c-.1 0-.203.014-.308.037a1.279 1.279 0 0 0-.3.108.664.664 0 0 0-.23.2.492.492 0 0 0-.087.3c0 .188.07.332.21.431.142.1.32.185.534.257.215.07.446.14.692.21.247.072.478.172.692.302.215.129.393.3.534.519.14.217.21.508.21.873 0 .346-.063.65-.193.907-.13.258-.304.474-.524.644a2.218 2.218 0 0 1-.768.378c-.29.083-.597.123-.921.123-.405 0-.781-.06-1.128-.184a2.842 2.842 0 0 1-.97-.598l.979-1.076c.14.188.319.334.533.436a1.524 1.524 0 0 0 1.006.114c.114-.026.217-.066.308-.12a.639.639 0 0 0 .22-.201.507.507 0 0 0 .084-.293.529.529 0 0 0-.216-.444 2.035 2.035 0 0 0-.542-.279 18.619 18.619 0 0 0-.705-.227 3.144 3.144 0 0 1-.705-.309 1.71 1.71 0 0 1-.543-.51c-.144-.212-.216-.492-.216-.838 0-.334.066-.628.199-.881.132-.255.309-.465.529-.636a2.28 2.28 0 0 1 .762-.384c.288-.086.585-.128.89-.128.353 0 .694.05 1.023.15.329.1.626.267.89.504l-.943 1.03zm5.386-.308h-1.78v-1.217h4.935v1.217h-1.78v5.024h-1.375v-5.024zm7.43 1.366h.812c.123 0 .254-.004.392-.013.138-.008.263-.035.375-.08a.653.653 0 0 0 .278-.206c.073-.095.11-.226.11-.397a.657.657 0 0 0-.097-.379.65.65 0 0 0-.247-.216 1.1 1.1 0 0 0-.344-.102 2.897 2.897 0 0 0-.38-.026h-.898v1.42zm-1.374-2.583h2.416c.316 0 .618.031.903.093.285.062.535.165.749.308.215.145.385.338.51.581.128.246.19.55.19.914 0 .44-.114.815-.343 1.124-.23.308-.565.503-1.005.585l1.587 2.636h-1.65l-1.303-2.495h-.68v2.495h-1.374v-6.24zm10.498 1.816l-.758 1.939h1.526l-.768-1.94zm-.528-1.815h1.136l2.715 6.24H44.91l-.538-1.321h-2.424l-.52 1.322h-1.516l2.698-6.241zm6.733 0h1.375v4.971h2.548v1.27h-3.923v-6.242zm6.866 6.24v-6.24h1.375v6.24H56.21zm7.414-4.425l-.758 1.939h1.525l-.767-1.94zm-.529-1.815h1.137l2.715 6.24h-1.552l-.537-1.321h-2.424l-.52 1.322h-1.517l2.698-6.241zm6.68 0h1.87l2.653 4.336h.018v-4.337h1.375v6.241h-1.8l-2.722-4.442h-.018v4.442h-1.375v-6.24zM21.078 63.01h2.055l1.417 4.02h.018l1.427-4.02h2.044v6.16h-1.357v-4.725h-.017l-1.617 4.725H24.01l-1.557-4.725h-.018v4.725h-1.357v-6.16zm12.941 1.791l-.749 1.914h1.505l-.756-1.913zm-.522-1.792h1.122l2.681 6.161h-1.532l-.532-1.305h-2.392l-.513 1.305h-1.498l2.664-6.16zm7.953 4.908h.705c.313 0 .605-.031.874-.095.27-.063.503-.17.701-.317.197-.15.352-.343.465-.584.113-.241.17-.534.17-.883 0-.302-.057-.564-.17-.788a1.578 1.578 0 0 0-.456-.552 1.996 1.996 0 0 0-.676-.326 2.962 2.962 0 0 0-.813-.11h-.8v3.655zm-1.358-4.907h2.037c.492 0 .961.054 1.404.164.444.11.832.289 1.163.537.33.246.592.565.787.96.195.395.291.874.291 1.436 0 .499-.094.939-.282 1.319-.189.38-.442.699-.76.958-.32.257-.689.453-1.107.587-.418.133-.855.2-1.314.2h-2.219V63.01zm8.833 0h4.186v1.252h-2.829v1.148h2.672v1.254h-2.672v1.252h2.986v1.254h-4.343v-6.16zM48.882.862c3.082 4.897 6.303 9.715 9.188 14.727 1.49 2.589 1.352 5.582.09 8.314-1.232 2.674-2.541 5.342-4.122 7.818-3.007 4.712-6.431 4.79-10.074.557-1.15-1.337-2.443-2.659-3.924-3.582-4.875-3.038-8.334-2.749-12.81.775-5.02 3.954-5.165 4.02-7.797-1.703-1.283-2.789-2.125-5.833-2.77-8.846-.542-2.528.863-4.329 3.004-5.79 2.105-1.438 3.89-3.332 5.902-4.917 1.235-.974 2.55-1.926 3.978-2.559 2.082-.922 4.502-.591 6.048-3.222 1.19-2.027 4.81-.731 5.62 1.704.057.169.099.346.174.507.724 1.557.892 4.013 3.142 3.654.87-.139 1.452-2.445 2.05-3.814.479-1.096.783-2.269 1.165-3.407l1.136-.216zm-.64 36.595s1.11.73 1.708.504c.606-.225 1.362-1.484 1.805-1.067.442.417.333 3.555-1.298 4.249-1.627.697-3.692-3.866-2.215-3.686z" class="fill"/>
    


      
    </svg>