<svg xmlns="http://www.w3.org/2000/svg" role="img" height="75" viewBox="0 0 54 69" class="">
      <title/>
      <desc> Icon</desc>

      
          
          


  
      <path d="M30.15 11.767c7.105-7.75 12.254-8.271 12.254-8.271-.04.035-.08.073-.125.108-8.719 7.506-10.012 14.4-10.012 14.4 13.942 1.312 15.665-8.165 17-12.13C50.601 1.913 51.752 0 51.752 0 30.665.087 30.15 11.767 30.15 11.767M19.776 25.474s-.546-4.353-5.69-9.384c-.029-.022-.053-.05-.075-.074 0 0 3.188.546 7.324 5.665 0 0 .111-7.294-13.013-8.227 0 0 .641 1.232 1.325 3.76.677 2.523 1.397 8.499 10.13 8.26m6.758 11.517c.01.059-.044 1.139 1.278 3.458.291.489.012.331.411.839 0 0-2.532.688-6.036-1.413 0 0 1.211-.411 1.39-3.827.166-9.177-4.739-15.329-5.228-15.912 5.263 6.14 6.167 10.346 6.167 12.524C27.474 14.409 36.09 8.24 36.09 8.24c-9.634 11.048-9.88 23.437-9.634 27.708v.003c.022.437.054.779.08 1.04zM5.89 51.801h1.541l1.517 4.02h.017l1.542-4.02h1.446l-2.53 6.133H8.341L5.891 51.8zm8.923 0h4.167v1.247h-2.815v1.144h2.66v1.248h-2.66v1.246h2.97v1.248h-4.322V51.8zm13.124 5.7a4.969 4.969 0 0 1-1.247.45 6.38 6.38 0 0 1-1.327.138c-.479 0-.92-.074-1.324-.225a3.031 3.031 0 0 1-1.049-.644 2.945 2.945 0 0 1-.69-1.02 3.465 3.465 0 0 1-.246-1.334c0-.489.082-.935.246-1.333.165-.399.396-.738.69-1.017a3.038 3.038 0 0 1 1.05-.647c.403-.15.844-.224 1.323-.224.49 0 .943.058 1.356.176.413.12.776.323 1.088.611l-.953 1.04a1.922 1.922 0 0 0-.625-.433c-.23-.099-.52-.148-.866-.148-.288 0-.55.05-.783.148a1.749 1.749 0 0 0-.989 1.04 2.271 2.271 0 0 0-.133.787c0 .29.044.554.133.793a1.758 1.758 0 0 0 .989 1.035c.233.1.495.15.783.15.295 0 .55-.035.762-.1.213-.068.385-.136.512-.205v-.997h-1.099v-1.248h2.4v3.207zm5.892-3.917l-.745 1.906h1.498l-.753-1.906zm-.521-1.784h1.118l2.669 6.134h-1.526l-.528-1.299h-2.382l-.511 1.3h-1.491l2.65-6.135zm6.566 0h1.838l2.606 4.263h.018V51.8h1.35v6.134H43.92l-2.676-4.366h-.017v4.366h-1.353V51.8zM1.324 65.027h.881c.118 0 .233-.012.344-.034a.951.951 0 0 0 .296-.115.606.606 0 0 0 .212-.22.696.696 0 0 0 .081-.353.603.603 0 0 0-.106-.37.709.709 0 0 0-.271-.214 1.146 1.146 0 0 0-.37-.097 3.512 3.512 0 0 0-.389-.022h-.678v1.425zM0 62.483h2.231c.311 0 .604.027.881.085.276.056.52.153.725.292.207.139.37.325.492.56.122.234.183.53.183.885 0 .35-.058.645-.169.882-.114.237-.27.428-.467.569a1.9 1.9 0 0 1-.704.3 4.034 4.034 0 0 1-.883.089h-.965v2.34H0v-6.002zm8.786 2.483h.779c.119 0 .245-.003.378-.012.132-.009.253-.034.36-.077a.628.628 0 0 0 .267-.198.613.613 0 0 0 .106-.382.633.633 0 0 0-.093-.364.616.616 0 0 0-.237-.208 1.06 1.06 0 0 0-.331-.098 2.71 2.71 0 0 0-.365-.025h-.864v1.364zm-1.324-2.483h2.324c.306 0 .595.03.869.088.275.06.514.16.72.297a1.5 1.5 0 0 1 .493.56c.122.234.182.526.182.877 0 .424-.11.784-.33 1.082-.221.297-.543.484-.967.563l1.525 2.536h-1.585l-1.255-2.4h-.652v2.4H7.462v-6.003zm8.666 3c0 .284.044.543.132.777.087.235.213.439.377.612.163.17.36.305.59.4.228.098.484.147.766.147.283 0 .538-.05.768-.146.228-.096.425-.23.589-.401.163-.173.29-.377.378-.612a2.19 2.19 0 0 0 .13-.776c0-.276-.042-.534-.13-.771a1.72 1.72 0 0 0-.967-1.017 1.954 1.954 0 0 0-.768-.146 1.94 1.94 0 0 0-.766.146c-.23.096-.427.229-.59.402a1.75 1.75 0 0 0-.377.615 2.202 2.202 0 0 0-.132.77m-1.374 0c0-.478.08-.914.24-1.304.163-.391.387-.722.676-.996.289-.275.63-.485 1.025-.633a3.726 3.726 0 0 1 1.298-.22c.469 0 .902.074 1.297.22a2.97 2.97 0 0 1 1.026.633c.289.274.513.605.674.996.16.39.242.826.242 1.305 0 .48-.081.916-.242 1.306-.161.39-.385.722-.674.997a2.95 2.95 0 0 1-1.026.63c-.395.148-.828.22-1.297.22-.47 0-.902-.072-1.298-.22a2.965 2.965 0 0 1-1.025-.63 2.88 2.88 0 0 1-.675-.997 3.41 3.41 0 0 1-.241-1.306m10.82 1.78h.687c.304 0 .588-.03.85-.092a1.84 1.84 0 0 0 .684-.309c.192-.145.343-.334.453-.569.11-.235.165-.52.165-.86 0-.295-.055-.55-.165-.769a1.537 1.537 0 0 0-.445-.538 1.954 1.954 0 0 0-.658-.317 2.891 2.891 0 0 0-.792-.107h-.779v3.561zm-1.324-4.78h1.985c.48 0 .937.051 1.368.16.433.107.81.28 1.133.521.321.241.577.552.767.937.19.385.284.851.284 1.4 0 .485-.091.913-.275 1.283a2.776 2.776 0 0 1-.742.934c-.311.25-.67.441-1.078.572-.406.13-.833.195-1.279.195H24.25v-6.003zm13.618 3.687a2.9 2.9 0 0 1-.161.983c-.107.3-.267.56-.48.78-.211.22-.474.393-.792.517a2.982 2.982 0 0 1-1.094.187 3.01 3.01 0 0 1-1.102-.187 2.201 2.201 0 0 1-.793-.517 2.149 2.149 0 0 1-.478-.78 2.852 2.852 0 0 1-.162-.983v-3.688h1.324v3.636c0 .187.029.36.089.518a1.156 1.156 0 0 0 .635.683c.15.065.312.098.487.098a1.178 1.178 0 0 0 .866-.369 1.26 1.26 0 0 0 .25-.412c.059-.158.089-.33.089-.518v-3.636h1.322v3.688zm7.267-2.129a1.3 1.3 0 0 0-.478-.364 1.596 1.596 0 0 0-.658-.128 1.654 1.654 0 0 0-1.242.548 1.867 1.867 0 0 0-.363.614 2.202 2.202 0 0 0-.133.771c0 .284.044.542.133.777.087.234.206.438.36.611.153.171.33.306.538.401.206.097.427.146.664.146.272 0 .513-.058.721-.17.21-.113.383-.27.519-.476l1.1.824a2.283 2.283 0 0 1-.966.787 2.962 2.962 0 0 1-1.203.255 3.7 3.7 0 0 1-1.299-.22 2.95 2.95 0 0 1-1.025-.632 2.875 2.875 0 0 1-.674-.997 3.407 3.407 0 0 1-.241-1.306c0-.479.08-.915.24-1.304.163-.392.388-.723.675-.996.29-.276.63-.486 1.026-.633a3.7 3.7 0 0 1 1.828-.174c.184.032.365.08.543.148.177.07.347.16.512.272.163.113.311.251.441.416l-1.017.83zm5.165-.39h-1.712v-1.17h4.748v1.17h-1.712v4.834H50.3v-4.833z" class="fill"/>
    


      
    </svg>