<svg xmlns="http://www.w3.org/2000/svg" role="img" height="75" viewBox="0 0 227 331.5" class="">
      <title/>
      <desc> Icon</desc>

      
          
          


  
      <g>
        <path class="fill" d="M21.6,256.4c-0.7-0.8-1.5-1.4-2.4-1.9c-1-0.4-2.1-0.6-3.3-0.6s-2.4,0.2-3.5,0.7c-1.1,0.5-2,1.2-2.8,2.1   c-0.8,0.9-1.4,1.9-1.9,3.1C7.2,261,7,262.3,7,263.7c0,1.4,0.2,2.8,0.7,4c0.4,1.2,1.1,2.2,1.8,3.1c0.8,0.9,1.7,1.6,2.7,2   c1.1,0.5,2.2,0.7,3.4,0.7c1.4,0,2.6-0.3,3.7-0.9c1.1-0.6,1.9-1.4,2.6-2.4l5.6,4.2c-1.3,1.8-2.9,3.1-4.9,4c-2,0.9-4,1.3-6.1,1.3   c-2.4,0-4.6-0.4-6.6-1.1c-2-0.7-3.8-1.8-5.2-3.2c-1.5-1.4-2.6-3.1-3.4-5.1c-0.8-2-1.2-4.2-1.2-6.7c0-2.4,0.4-4.7,1.2-6.6   c0.8-2,2-3.7,3.4-5.1c1.5-1.4,3.2-2.5,5.2-3.2c2-0.8,4.2-1.1,6.6-1.1c0.9,0,1.8,0.1,2.7,0.2c0.9,0.2,1.9,0.4,2.8,0.8   s1.8,0.8,2.6,1.4c0.8,0.6,1.6,1.3,2.2,2.1L21.6,256.4z"/>
        <path class="fill" d="M49.9,248.5h5.6L68.7,279h-7.6l-2.6-6.5H46.6l-2.5,6.5h-7.4L49.9,248.5z M52.4,257.3l-3.7,9.5h7.5L52.4,257.3z   "/>
        <path class="fill" d="M80.4,248.5h11.8c1.5,0,3,0.1,4.4,0.5c1.4,0.3,2.6,0.8,3.7,1.5c1,0.7,1.9,1.6,2.5,2.8c0.6,1.2,0.9,2.7,0.9,4.5   c0,2.2-0.6,4-1.7,5.5s-2.8,2.5-4.9,2.9l7.8,12.9h-8.1l-6.4-12.2h-3.3V279h-6.7L80.4,248.5L80.4,248.5z M87.1,261.1h4   c0.6,0,1.2,0,1.9-0.1c0.7,0,1.3-0.2,1.8-0.4c0.5-0.2,1-0.5,1.4-1c0.4-0.5,0.5-1.1,0.5-1.9c0-0.8-0.2-1.4-0.5-1.8   c-0.3-0.5-0.7-0.8-1.2-1.1c-0.5-0.2-1-0.4-1.7-0.5c-0.6-0.1-1.2-0.1-1.9-0.1h-4.4L87.1,261.1L87.1,261.1z"/>
        <path class="fill" d="M117,248.5h11.4c1.3,0,2.6,0.1,4,0.3s2.5,0.6,3.6,1.1s1.9,1.4,2.6,2.4c0.7,1,1,2.3,1,4c0,1.7-0.5,3.1-1.4,4.3   s-2.2,2-3.8,2.4v0.1c1,0.1,1.9,0.4,2.7,0.8c0.8,0.4,1.5,1,2.1,1.6c0.6,0.6,1,1.4,1.4,2.3c0.3,0.9,0.5,1.8,0.5,2.8c0,1.6-0.4,3-1,4   c-0.7,1.1-1.6,2-2.7,2.6c-1.1,0.7-2.3,1.1-3.7,1.4c-1.4,0.3-2.7,0.4-4.1,0.4H117L117,248.5L117,248.5z M123.7,260.7h4.9   c0.5,0,1,0,1.5-0.2c0.5-0.1,1-0.3,1.4-0.6c0.4-0.3,0.7-0.6,1-1c0.2-0.4,0.4-1,0.4-1.5c0-0.6-0.1-1.2-0.4-1.6c-0.3-0.4-0.6-0.7-1-1   s-0.9-0.4-1.5-0.5s-1.1-0.1-1.6-0.1h-4.6V260.7z M123.7,273.3h6c0.5,0,1-0.1,1.6-0.2c0.5-0.1,1-0.3,1.4-0.6   c0.4-0.3,0.8-0.7,1.1-1.1c0.3-0.5,0.4-1,0.4-1.7c0-0.7-0.2-1.3-0.5-1.8c-0.4-0.5-0.8-0.8-1.4-1c-0.5-0.2-1.1-0.4-1.8-0.5   c-0.6-0.1-1.2-0.1-1.8-0.1h-5.1V273.3z"/>
        <path class="fill" d="M151.9,263.7c0-2.4,0.4-4.7,1.2-6.6c0.8-2,2-3.7,3.4-5.1s3.2-2.5,5.2-3.2c2-0.8,4.2-1.1,6.6-1.1   s4.6,0.4,6.6,1.1s3.8,1.8,5.2,3.2c1.5,1.4,2.6,3.1,3.4,5.1c0.8,2,1.2,4.2,1.2,6.6c0,2.4-0.4,4.7-1.2,6.7c-0.8,2-2,3.7-3.4,5.1   c-1.5,1.4-3.2,2.5-5.2,3.2c-2,0.8-4.2,1.1-6.6,1.1s-4.6-0.4-6.6-1.1c-2-0.7-3.8-1.8-5.2-3.2c-1.5-1.4-2.6-3.1-3.4-5.1   C152.3,268.4,151.9,266.2,151.9,263.7z M158.9,263.7c0,1.4,0.2,2.8,0.7,4c0.4,1.2,1.1,2.2,1.9,3.1c0.8,0.9,1.8,1.6,3,2   c1.2,0.5,2.5,0.7,3.9,0.7s2.7-0.2,3.9-0.7c1.2-0.5,2.2-1.2,3-2c0.8-0.9,1.5-1.9,1.9-3.1c0.5-1.2,0.7-2.5,0.7-4   c0-1.4-0.2-2.7-0.7-3.9c-0.5-1.2-1.1-2.2-1.9-3.1c-0.8-0.9-1.8-1.6-3-2.1s-2.5-0.7-3.9-0.7s-2.7,0.2-3.9,0.7   c-1.2,0.5-2.2,1.2-3,2.1c-0.8,0.9-1.5,1.9-1.9,3.1S158.9,262.3,158.9,263.7z"/>
        <path class="fill" d="M198.1,248.5h9.1l13,21.2h0.1v-21.2h6.7V279h-8.8l-13.3-21.7h-0.1V279h-6.7L198.1,248.5L198.1,248.5z"/>
        <path class="fill" d="M12.4,315.5c0-2.4,0.4-4.7,1.2-6.6c0.8-2,2-3.7,3.4-5.1c1.5-1.4,3.2-2.5,5.2-3.2c2-0.8,4.2-1.1,6.6-1.1   s4.6,0.4,6.6,1.1s3.8,1.8,5.2,3.2c1.5,1.4,2.6,3.1,3.4,5.1c0.8,2,1.2,4.2,1.2,6.6c0,2.4-0.4,4.7-1.2,6.7c-0.8,2-2,3.7-3.4,5.1   c-1.5,1.4-3.2,2.5-5.2,3.2c-2,0.8-4.2,1.1-6.6,1.1s-4.6-0.4-6.6-1.1c-2-0.7-3.8-1.8-5.2-3.2c-1.5-1.4-2.6-3.1-3.4-5.1   C12.8,320.2,12.4,317.9,12.4,315.5z M19.3,315.5c0,1.4,0.2,2.8,0.7,4c0.4,1.2,1.1,2.2,1.9,3.1c0.8,0.9,1.8,1.6,3,2   c1.2,0.5,2.5,0.7,3.9,0.7s2.7-0.2,3.9-0.7c1.2-0.5,2.2-1.2,3-2c0.8-0.9,1.5-1.9,1.9-3.1c0.4-1.2,0.7-2.5,0.7-4   c0-1.4-0.2-2.7-0.7-3.9c-0.4-1.2-1.1-2.2-1.9-3.1s-1.8-1.6-3-2s-2.5-0.7-3.9-0.7s-2.7,0.2-3.9,0.7c-1.2,0.5-2.2,1.2-3,2   c-0.8,0.9-1.5,1.9-1.9,3.1C19.6,312.8,19.3,314.1,19.3,315.5z"/>
        <path class="fill" d="M58.8,300.2h20.5v6.2H65.5v6.2h12.7v6.2H65.5v11.9h-6.7V300.2z"/>
        <path class="fill" d="M93,300.2h20.5v6.2H99.7v6.2h12.7v6.2H99.7v11.9H93V300.2z"/>
        <path class="fill" d="M142,307.7c-0.5-0.7-1.3-1.2-2.2-1.5c-0.9-0.3-1.8-0.5-2.6-0.5c-0.5,0-1,0.1-1.5,0.2c-0.5,0.1-1,0.3-1.5,0.5   s-0.8,0.6-1.1,1c-0.3,0.4-0.4,0.9-0.4,1.5c0,0.9,0.4,1.6,1,2.1s1.6,0.9,2.6,1.2c1,0.4,2.2,0.7,3.4,1c1.2,0.3,2.3,0.8,3.4,1.5   c1,0.6,1.9,1.5,2.6,2.5c0.7,1.1,1,2.5,1,4.3c0,1.7-0.3,3.2-1,4.4c-0.6,1.3-1.5,2.3-2.6,3.1c-1.1,0.8-2.3,1.5-3.8,1.9   c-1.4,0.4-2.9,0.6-4.5,0.6c-2,0-3.8-0.3-5.5-0.9c-1.7-0.6-3.3-1.6-4.7-2.9l4.8-5.3c0.7,0.9,1.6,1.6,2.6,2.1c1,0.5,2.1,0.8,3.2,0.8   c0.5,0,1.1-0.1,1.7-0.2s1.1-0.3,1.5-0.6s0.8-0.6,1.1-1c0.3-0.4,0.4-0.9,0.4-1.4c0-0.9-0.4-1.7-1.1-2.2c-0.7-0.5-1.6-1-2.6-1.4   c-1.1-0.4-2.2-0.8-3.5-1.1c-1.2-0.4-2.4-0.9-3.5-1.5c-1.1-0.6-2-1.5-2.6-2.5c-0.7-1-1.1-2.4-1.1-4.1c0-1.6,0.3-3.1,1-4.3   c0.6-1.2,1.5-2.3,2.6-3.1c1.1-0.8,2.3-1.5,3.7-1.9c1.4-0.4,2.9-0.6,4.4-0.6c1.7,0,3.4,0.2,5,0.7c1.6,0.5,3.1,1.3,4.4,2.5L142,307.7   z"/>
        <path class="fill" d="M160.6,300.2h20.8v6.2h-14v5.7h13.2v6.2h-13.2v6.2h14.8v6.2h-21.5V300.2z"/>
        <path class="fill" d="M202,306.2h-8.7v-6h24.2v6h-8.7v24.6H202L202,306.2L202,306.2z"/>
      </g>
      <g id="XMLID_154_">
        <g id="XMLID_157_">
          <path id="XMLID_159_" class="fill" d="M198.9,92c-4.9,1.7-8.5,5.1-11,9.6c-2.4,4.4-4.9,8.7-8,12.6c-3.1,4.1-6.7,7.7-10.7,11.1    c-5.9,4.5-13.9,9.2-13.9,9.2c-2.8,1.2-5.6,2.5-8.4,3.7c-6.1,2.5-12.4,3.9-18.9,4.6c-7,0.7-14,0.5-20.8-1.5c-3.2-1-6.3-2.4-8.9-4.6    c-2.3-2-3.9-4.4-4.3-7.4c-0.5-4.6,1.1-8.6,4-12c3-3.4,6.2-6.6,9.3-10c1.9-2.2,3.4-4.6,4-7.5c0.9-4.1-0.4-7.6-2.7-10.9    c-1-1.5-2.2-2.8-3.4-4.2c-0.4,1.4-0.7,2.6-1.2,3.7c-1.7,3.5-4.4,6.2-7.2,8.8c-5.9,5.5-12,10.8-17.9,16.4    c-8.4,7.9-16,16.4-20.7,27.1c-1.4,3.2-2.4,6.6-3.3,10c-0.6,2.2-0.7,4.5-0.9,6.8c-0.1,1.5,0,3,0,4.7c0,0,0,0,0.1,0    c0.1,0.5,0.1,1.1,0.2,1.9c0,0.8,0.1,1.5,0.2,2.2c0,0.3,0.1,0.6,0.2,0.8c0.1,0.7,0.2,1.4,0.3,2c0,0,0,0,0,0    c0.1,0.2,0.1,0.5,0.2,0.7c0,0,0,0.1,0,0.1c0,0,0,0.1,0,0.1c1.7,7.5,5.2,14.3,9.4,20.8c4.9,7.6,13.9,17.4,15.4,18.3    c0.1-0.9,0.3-1.8,0.4-2.7c0.3-4.6,1-9.1,2.5-13.6c1.6-4.8,4-9.1,7.5-12.9c5-5.4,11.2-9,17.9-11.7c6.3-2.5,12.7-4.6,19.1-6.8    c5.7-2,11.5-3.8,17.3-5.7c6.3-2,12.1-5,17.7-8.6c7.6-4.8,14.1-10.7,19.7-17.7c5-6.3,9.1-13.2,13.2-20c2.8-4.6,5.7-9.1,8.6-13.6    c0.7-1,1.4-2,2.1-3C204.1,91.3,201.2,91.2,198.9,92z"/>
          <path id="XMLID_158_" class="fill" d="M111.6,134.3c4.4,2.2,9.1,3.2,13.9,3.4c6.8,0.3,13.5-0.4,20.2-2c1.8-0.4,3.5-0.8,5.2-1.5    c5.3-2.2,9.9-5.6,13.5-10.1c4.5-5.4,7.5-11.8,10.5-18.1c1.7-3.5,3.5-7,5.5-10.4c1.2-2,2.7-3.8,4.2-5.9c-0.3-0.2-0.6-0.5-0.9-0.7    c-2.5-1.3-5-1.4-7.7-0.6c-1.5,0.4-2.8,1.2-3.8,2.4c-3.6,4.4-6.2,9.2-8.7,14.2c-1.7,3.4-3.4,6.8-5.3,10.1c-3.6,6-8.8,10.4-14.7,14    c-0.5,0.3-1,0.5-1.4,0.7c0-0.1-0.1-0.2-0.1-0.2c0.3-0.2,0.5-0.5,0.8-0.7c4.6-3.4,8-7.7,10.7-12.6c2.7-4.9,5.1-10.1,7.7-15.1    c1.9-3.7,4.1-7.3,7-10.4c0.8-0.9,0.8-1.2-0.3-1.8c-2.1-1.1-4.3-0.9-6.5-0.6c-1.5,0.2-2.9,0.9-3.9,2.2c-3,3.8-5.5,7.9-7.8,12.3    c-1.9,3.7-3.8,7.5-5.9,11.1c-3.7,6.3-8.8,11.3-15,15.1c-0.5,0.3-1,0.5-1.5,0.8c-0.1-0.1-0.1-0.2-0.2-0.3c0.3-0.3,0.7-0.5,1-0.8    c1.6-1.4,3.3-2.8,4.7-4.4c4-4.4,6.7-9.7,9.4-14.9c2.8-5.6,5.6-11.2,10.3-15.9c-1.1-0.4-2.1-0.8-3-1c-2.8-0.6-5.4-0.1-7.4,2.1    c-1.4,1.4-2.6,3.1-3.7,4.8c-2.8,4.6-5.4,9.3-8.1,13.9c-2.7,4.7-5.6,9.2-9.4,13c-2.9,3-6.2,5.4-9.9,7.5    C111.2,134.1,111.4,134.3,111.6,134.3z"/>
        </g>
        <path id="XMLID_156_" class="fill" d="M179.6,31.4c-3.5,0.8-6.7,1.6-10,2.1c-2.2,0.4-4.6,0.5-6.8,0.5c-2.1,0-4.1-0.4-6.2-0.6   c-4.9-0.5-9.7,0-14.4,1.6c-5.9,2.1-10.6,5.8-14.5,10.6c-2.7,3.3-4.9,7.1-6.7,11c-1.7,3.7-3,7.5-3.9,11.4c-0.4,1.8-0.8,3.5-1.1,5.3   c-0.2,1.2-0.2,2.4-0.3,3.8c13-8.9,25.9-17.7,38.7-26.5c0.1,0.1,0.2,0.2,0.3,0.3c-11.5,10.6-22.9,21.2-34.4,31.9   c0,0.1,0.1,0.3,0.1,0.4c1.7,0.2,3.5,0.4,5.2,0.5c4.5,0.1,8.9-0.4,13.2-1.8c3.4-1.1,6.9-2.1,10.2-3.5c5.7-2.5,11-5.8,15.8-9.6   c0.1-0.1,0.1-0.1,0.2-0.1c0.5-0.4,0.9-0.7,1.3-1.1c0.1-0.1,0.2-0.2,0.3-0.3c0,0,0,0,0-0.1c8.3-7.1,9.5-13.5,9.8-14.4l0,0   C179.3,45.8,180.3,38.6,179.6,31.4z"/>
        <path id="XMLID_155_" class="fill" d="M72.9,30.3C85.3,44.4,97.6,58.6,110,72.7c-0.1-2.1-0.4-4-0.8-5.9c-0.6-3.4-1.1-6.8-2-10.1   c-0.9-3.6-1.9-7.2-3.1-10.8c-0.4-1.1-0.8-2.2-1.2-3.3l0,0c-0.1-0.1-0.1-0.3-0.2-0.4c-0.9-2.1-1.9-4-3-5.9   c-7.8-13.5-17.1-17-17.1-17l0,0c-1.3-0.7-2.9-1.4-2.9-1.4c-1.8-0.8-3.5-1.5-5.1-2.1c-3.3-1.2-6.7-2.3-10-3.7   c-4.1-1.7-7.9-4.1-11-7.3c-1.5-1.5-2.7-3.1-4.2-4.8c-0.2,1.9-0.6,3.9-0.7,5.8c-0.3,6.9,0,13.7,1.9,20.4c0.9,3,1.6,6.1,2.9,9   c1.8,4.2,3.9,8.3,6.1,12.3c3.2,5.8,7,11.1,11.7,15.7c2.6,2.6,5.4,5,8.3,7.2c3.4,2.6,7.3,4.6,11.4,5.9c2,0.6,4,1.2,6,1.6   c2,0.3,4,0.3,6.4,0.5C92.9,62.2,82.7,46.4,72.6,30.5C72.7,30.4,72.8,30.3,72.9,30.3z"/>
      </g>
    


      
    </svg>