<svg xmlns="http://www.w3.org/2000/svg" aria-label="Free shipping on orders over $50*" role="img" height="50" viewBox="0 0 70 49" class="">
      <title>Free shipping on orders over $50*</title>
      <desc>Free shipping on orders over $50* Icon</desc>

      
          
          


  
      <g class="fill" stroke="#FFF" stroke-width=".6">
        <path d="M19.44 39.371c-.66 0-1.194.54-1.194 1.205 0 3.04-2.45 5.512-5.458 5.512-3.01 0-5.46-2.473-5.46-5.512 0-.666-.533-1.205-1.193-1.205s-1.193.54-1.193 1.205c0 4.368 3.52 7.922 7.846 7.922 4.325 0 7.845-3.554 7.845-7.922a1.2 1.2 0 0 0-1.194-1.205zM64.509 39.371c-.66 0-1.193.54-1.193 1.205 0 3.04-2.45 5.512-5.46 5.512s-5.458-2.473-5.458-5.512c0-.666-.534-1.205-1.193-1.205-.66 0-1.193.54-1.193 1.205 0 4.368 3.519 7.922 7.845 7.922 4.325 0 7.845-3.554 7.845-7.922 0-.665-.534-1.205-1.193-1.205zM69.503 36.502c0-6.485-5.225-11.761-11.646-11.761-.33 0-.656.022-.979.05l-3.474-10.526h1.738c2.679 0 4.858-2.201 4.858-4.907 0-2.705-2.18-4.906-4.858-4.906h-4.977l-1.086-3.289c-.005-.014-.012-.025-.018-.038a1.304 1.304 0 0 0-.054-.123c-.016-.032-.032-.065-.05-.095a1.024 1.024 0 0 0-.07-.097c-.024-.032-.047-.062-.073-.09a1.232 1.232 0 0 0-.081-.077 1.32 1.32 0 0 0-.09-.076c-.03-.022-.063-.04-.096-.06a1.26 1.26 0 0 0-.101-.056 1.15 1.15 0 0 0-.104-.04c-.039-.014-.077-.028-.117-.037-.033-.009-.067-.013-.102-.019a1.25 1.25 0 0 0-.134-.014c-.014 0-.027-.004-.041-.004H35.88c-.66 0-1.194.54-1.194 1.205 0 .666.534 1.205 1.194 1.205h11.208l7.424 22.492c-4.47 1.357-7.814 5.355-8.248 10.194H2.782c.52-4.982 4.03-12.362 10.513-12.362.66 0 1.193-.539 1.193-1.205 0-.513-.319-.948-.766-1.122a1.18 1.18 0 0 0-.63-.186h-9.65V16.8h25.491l-1.208 3.554h-5.028c-.66 0-1.193.539-1.193 1.205 0 4.515 3.408 11.212 8.116 11.212.66 0 1.194-.54 1.194-1.205 0-.666-.534-1.205-1.194-1.205-2.597 0-5.135-4.049-5.635-7.597h4.278c.342 0 .648-.147.865-.379.302-.128.556-.371.671-.71l1.935-5.689c.008-.023.01-.047.017-.071a1.031 1.031 0 0 0 .04-.25c.002-.023.007-.046.007-.07 0-.013-.003-.025-.004-.039a1.386 1.386 0 0 0-.065-.349c-.013-.038-.025-.075-.041-.112-.015-.033-.034-.065-.053-.097-.02-.034-.039-.069-.061-.101a1.113 1.113 0 0 0-.073-.09c-.025-.028-.049-.056-.076-.083-.028-.027-.06-.05-.09-.075a1.098 1.098 0 0 0-.093-.068c-.03-.02-.064-.037-.098-.054a1.144 1.144 0 0 0-.114-.053c-.013-.005-.023-.012-.036-.017-.024-.008-.048-.01-.072-.017a1.158 1.158 0 0 0-.118-.028 1.247 1.247 0 0 0-.132-.014c-.022-.001-.043-.006-.065-.006H2.197c-.659 0-1.192.539-1.192 1.205 0 .115.021.225.05.33v5.508a1.199 1.199 0 0 0 1.142 1.536h4.545c-1.196.924-2.285 2.115-3.23 3.552C1.559 29.492.344 33.352.329 36.61l-.002.028v.034c0 .666.534 1.205 1.193 1.205.094 0 .184-.014.271-.034h66.52c.659 0 1.193-.539 1.193-1.205 0-.023-.006-.046-.008-.068.002-.023.007-.045.007-.07zM55.142 6.862c1.363 0 2.472 1.12 2.472 2.496 0 1.377-1.109 2.497-2.472 2.497h-2.534L50.96 6.862h4.182zm2.715 20.289c4.748 0 8.668 3.629 9.194 8.283h-18.39c.528-4.654 4.448-8.283 9.196-8.283z"/>
        <path d="M18.081 27.288c.66 0 1.194-.539 1.194-1.205s-.534-1.205-1.194-1.205h-4.887c-.66 0-1.193.54-1.193 1.205 0 .666.534 1.205 1.193 1.205h4.887zM7.25 31.019c0 .666.534 1.205 1.193 1.205h11.946c.66 0 1.193-.54 1.193-1.205 0-.666-.533-1.205-1.193-1.205H8.443c-.66 0-1.193.539-1.193 1.205z"/>
      </g>
    


      
    </svg>