<svg xmlns="http://www.w3.org/2000/svg" aria-label="Find Sukin at a store near you" role="img" height="50" viewBox="0 0 135 126" class="">
      <title>Find Sukin at a store near you</title>
      <desc>Find Sukin at a store near you Icon</desc>

      
          
          


  
    <g class="fill"><polygon points="133.47 28.9 1.53 28.9 15.03 1.53 121.48 1.53 133.47 28.9" fill="none" stroke="#000000" stroke-linecap="round" stroke-linejoin="round" stroke-width="3.06"/><polyline points="123.7 46.47 123.7 124.68 12.28 124.68 12.28 46.47" fill="none" stroke="#000000" stroke-linecap="round" stroke-linejoin="round" stroke-width="3.06"/><polyline points="64.8 123.82 64.8 59.4 112.44 59.4 112.44 123.82" fill="none" stroke="#000000" stroke-linecap="round" stroke-linejoin="round" stroke-width="3.06"/><polyline points="23.96 123.82 23.96 59.41 55.16 59.41 55.16 123.82" fill="none" stroke="#000000" stroke-linecap="round" stroke-linejoin="round" stroke-width="3.06"/><path d="M617,350.29v9.6s.29,7.91,13,7.91S643.23,361,643.23,361V350.85" transform="translate(-615.46 -321.4)" fill="none" stroke="#000000" stroke-linecap="round" stroke-linejoin="round" stroke-width="3.06"/><path d="M643.48,350.29v9.6s.3,7.91,13,7.91S669.67,361,669.67,361V350.85" transform="translate(-615.46 -321.4)" fill="none" stroke="#000000" stroke-linecap="round" stroke-linejoin="round" stroke-width="3.06"/><path d="M669.93,350.29v9.6s.29,7.91,13,7.91S696.12,361,696.12,361V350.85" transform="translate(-615.46 -321.4)" fill="none" stroke="#000000" stroke-linecap="round" stroke-linejoin="round" stroke-width="3.06"/><path d="M696.37,350.29v9.6s.3,7.91,13,7.91S722.56,361,722.56,361V350.85" transform="translate(-615.46 -321.4)" fill="none" stroke="#000000" stroke-linecap="round" stroke-linejoin="round" stroke-width="3.06"/><path d="M722.82,350.29v9.6s.3,7.91,13,7.91S749,361,749,361V350.85" transform="translate(-615.46 -321.4)" fill="none" stroke="#000000" stroke-linecap="round" stroke-linejoin="round" stroke-width="3.06"/></g>
    


      
    </svg>