<svg xmlns="http://www.w3.org/2000/svg" aria-label="Earn points with every purchase" role="img" height="50" viewBox="0 0 30 49" class="">
      <title>Earn points with every purchase</title>
      <desc>Earn points with every purchase Icon</desc>

      
          
          


  
    <g class="fill"><path d="M25.7074825,9.75 C24.1242657,8.39 22.5311538,7.33 20.9083566,6.57 C19.2855594,5.81 17.4450699,5.35 15.3572028,5.2 L15.3572028,22.84 C19.6912587,23.81 22.926958,25.11 25.0544056,26.72 C27.1818531,28.34 28.2505245,30.62 28.2505245,33.58 C28.2505245,35.14 27.9437762,36.57 27.3203846,37.87 C26.696993,39.18 25.8262238,40.3 24.7080769,41.26 C23.5899301,42.21 22.2441958,42.95 20.6708741,43.48 C19.1074476,44.01 17.356014,44.27 15.4165734,44.27 L15.4165734,50 L13.6849301,50 L13.6849301,44.22 C11.0627273,44.03 8.60874126,43.38 6.31307692,42.29 C4.01741259,41.2 1.92954545,39.76 0.0395804196,37.97 L1.31604895,36.51 C3.08727273,38.26 4.99702797,39.66 7.03541958,40.69 C9.07381119,41.72 11.3101049,42.34 13.7443007,42.53 L13.7443007,24.3 C9.54877622,23.4 6.4615035,22.16 4.49237762,20.56 C2.52325175,18.96 1.54363636,16.69 1.54363636,13.73 C1.54363636,12.33 1.83059441,11 2.41440559,9.76 C2.98832168,8.51 3.81951049,7.42 4.89807692,6.49 C5.97664336,5.56 7.25311189,4.82 8.73737762,4.27 C10.2216434,3.73 11.8642308,3.45 13.675035,3.45 L13.675035,0 L15.4066783,0 L15.4066783,3.5 C17.7518182,3.66 19.8495804,4.13 21.6801748,4.93 C23.5107692,5.73 25.2523077,6.83 26.9146853,8.23 L25.7074825,9.75 Z M3.51276224,13.61 C3.51276224,14.78 3.69087413,15.81 4.0372028,16.71 C4.38353147,17.61 4.95744755,18.39 5.76884615,19.08 C6.58024476,19.76 7.63902098,20.37 8.94517483,20.89 C10.2513287,21.42 11.8543357,21.91 13.7443007,22.38 L13.7443007,5.08 C12.1610839,5.08 10.7460839,5.31 9.4993007,5.78 C8.24262238,6.25 7.17395105,6.87 6.29328671,7.65 C5.40272727,8.43 4.71996503,9.32 4.245,10.34 C3.76013986,11.35 3.51276224,12.44 3.51276224,13.61 Z M26.2912937,33.7 C26.2912937,32.49 26.0834965,31.43 25.6777972,30.52 C25.2720979,29.61 24.6289161,28.8 23.7581469,28.1 C22.8873776,27.4 21.7494406,26.79 20.3542308,26.26 C18.959021,25.73 17.2966434,25.24 15.3572028,24.77 L15.3572028,42.59 L15.5353147,42.59 C17.1581119,42.59 18.6324825,42.37 19.9485315,41.92 C21.2645804,41.47 22.4025175,40.85 23.3524476,40.05 C24.3023776,39.25 25.0247203,38.31 25.5293706,37.22 C26.034021,36.12 26.2912937,34.95 26.2912937,33.7 Z" id="XMLID_1_"/></g>
    


      
    </svg>