<svg xmlns="http://www.w3.org/2000/svg" aria-label="Buy now, pay later with Afterpay" role="img" height="50" viewBox="0 0 40 29" class="">
      <title>Buy now, pay later with Afterpay</title>
      <desc>Buy now, pay later with Afterpay Icon</desc>

      
          
          


  
    &lt;<g id="Page-1" fill-rule="evenodd"><g id="Afterpay-03" class="fill" fill-rule="nonzero"><g id="_Path_" transform="translate(17.131)"><path d="M11.352 20.744c-.077 0-.155-.002-.232-.007-1.138-.08-2.151-.732-2.781-1.795-.68-1.133-1.109-1.881-1.605-2.748-.26-.452-.536-.936-.877-1.524a1.992 1.992 0 0 1-.318-.577.393.393 0 0 1 .17-.47c.68-.4 1.367-.798 2.032-1.184.665-.386 1.348-.778 2.02-1.176a.393.393 0 0 1 .543.144l.145.256c.257.455.257.455.542.916l.101.164.008.012c.137.239.23.318.264.341.035-.023.127-.1.265-.341.67-1.177 1.36-2.375 2.03-3.533A984.37 984.37 0 0 0 15.508 6l.009-.015c.127-.2.147-.307.149-.344-.033-.017-.133-.057-.37-.057a288.407 288.407 0 0 0-7.79 0c-.297 0-.418.038-.46.056 0 .048.026.183.18.478.24.434.3.542.404.717.073.127.165.285.352.617a.393.393 0 0 1-.146.533c-.66.38-1.296.753-1.931 1.125-.686.398-1.396.817-2.122 1.235a.393.393 0 0 1-.537-.145 52.152 52.152 0 0 1-1.633-2.982c-.11-.19-.224-.38-.337-.571a22.983 22.983 0 0 1-.814-1.45 3.506 3.506 0 0 1 .095-3.412C1.186.745 2.316.112 3.58.093c5.217-.035 10.518-.035 15.77 0a3.415 3.415 0 0 1 2.67 1.275c.665.825.919 1.909.69 2.944v.012a5.29 5.29 0 0 1-.638 1.493c-1.787 3.138-3.624 6.314-5.401 9.386a1672.77 1672.77 0 0 0-1.94 3.357 4.86 4.86 0 0 1-.487.71c-.752.944-1.796 1.474-2.892 1.474zm-4.93-6.63c.02.027.04.055.063.079a.504.504 0 0 1 .038.054c.348.6.63 1.094.894 1.554.493.863.92 1.608 1.593 2.736.498.838 1.285 1.355 2.16 1.413.917.061 1.814-.368 2.46-1.18.157-.188.295-.39.415-.603.649-1.126 1.297-2.247 1.943-3.362 1.78-3.071 3.618-6.248 5.405-9.387l.007-.012c.244-.393.427-.82.54-1.268a2.703 2.703 0 0 0-.536-2.275 2.63 2.63 0 0 0-2.06-.987 1180.41 1180.41 0 0 0-15.758 0c-.988.015-1.87.505-2.357 1.312-.487.807-.513 1.776-.066 2.655.239.478.517.948.787 1.402a45.252 45.252 0 0 1 .355.604c.601 1.166.797 1.53 1.424 2.618.606-.35 1.2-.698 1.777-1.036L7.1 7.5a29.546 29.546 0 0 1-.572-1.014c-.203-.388-.399-.877-.165-1.261.233-.384.726-.43 1.133-.43 2.584-.036 5.21-.036 7.799 0 .532 0 .89.155 1.06.46.169.307.109.688-.174 1.14-.611 1.07-1.24 2.161-1.848 3.216a1108.89 1108.89 0 0 0-2.027 3.53c-.105.185-.426.745-.948.745-.517 0-.836-.548-.944-.739l-.098-.159c-.272-.441-.292-.472-.506-.85-.563.33-1.13.658-1.682.977-.551.318-1.133.662-1.706.998z" id="_Compound_Path_"/></g><g id="_Path_2" transform="translate(0 3.028)"><path d="M4.802 20.518a41.48 41.48 0 0 1-1.458-.016 3.486 3.486 0 0 1-2.887-1.8c-.575-1.056-.55-2.338.068-3.426 2.566-4.541 5.243-9.12 7.832-13.545a3.448 3.448 0 0 1 5.319-.782c.386.374.715.804.976 1.275 2.476 4.28 5.02 8.718 7.268 12.633.148.238.273.49.375.751.478 1.165.392 2.39-.246 3.363-.639.972-1.709 1.518-2.955 1.537h-5.479a.393.393 0 0 1-.393-.393v-4.682a.393.393 0 0 1 .393-.393h1.559c.26 0 .368-.038.404-.057 0-.041-.022-.16-.16-.398-.796-1.44-1.635-2.89-2.446-4.291-.46-.797-.935-1.617-1.398-2.43a1.084 1.084 0 0 0-.23-.307 1.13 1.13 0 0 0-.23.31 429.52 429.52 0 0 0-3.88 6.683c-.149.253-.18.378-.185.427.045.02.17.059.467.059H9.04c.217 0 .393.176.393.393v4.676a.394.394 0 0 1-.393.393c-.53 0-1.222.004-1.944.007-.801.009-1.616.013-2.294.013zM11.335.81a2.653 2.653 0 0 0-2.298 1.313C6.45 6.548 3.775 11.127 1.212 15.66c-.495.866-.515 1.837-.065 2.666a2.698 2.698 0 0 0 2.238 1.389c.503.023 2.206.014 3.709.006.558 0 1.095-.006 1.555-.006v-3.89H7.52c-.388 0-.93-.047-1.16-.45-.232-.405 0-.888.198-1.217a429.006 429.006 0 0 1 3.88-6.686c.176-.304.463-.712.91-.712.448 0 .733.41.91.717.463.811.937 1.633 1.396 2.426.812 1.405 1.652 2.858 2.45 4.3.103.177.418.73.16 1.178-.258.447-.885.444-1.09.444h-1.164v3.89h5.079c.977-.015 1.818-.446 2.303-1.183.485-.737.558-1.71.174-2.637a3.92 3.92 0 0 0-.325-.649c-2.247-3.916-4.794-8.354-7.274-12.642a4.688 4.688 0 0 0-.831-1.091A2.638 2.638 0 0 0 11.334.81h.001z" id="_Compound_Path_2"/></g></g></g></svg>