<svg xmlns="http://www.w3.org/2000/svg" aria-label="Youtube" role="img" width="32" height="32" viewBox="0 0 27 20" class="">
      <title>Youtube</title>
      <desc>Youtube Icon</desc>

      
          <path d="M26.129 10.618c0 2.207-.261 4.414-.261 4.414s-.255 1.877-1.039 2.706c-.993 1.085-2.107 1.09-2.618 1.153-3.656.276-9.146.285-9.146.285s-6.794-.065-8.884-.273c-.582-.114-1.888-.08-2.881-1.165C.516 16.909.26 15.032.26 15.032S0 12.825 0 10.618V8.549c0-2.206.261-4.412.261-4.412S.516 2.257 1.3 1.43C2.293.344 3.407.34 3.918.276 7.574 0 13.06 0 13.06 0h.01s5.485 0 9.141.276c.511.063 1.625.068 2.618 1.154.784.828 1.039 2.707 1.039 2.707s.261 2.206.261 4.412v2.069zm-15.762 2.507l7.06-3.818-7.062-3.844.002 7.662z" class="fill"/>
        
    </svg>